<?xml version="1.0" encoding="utf-8" standalone="no"?>
<!DOCTYPE svg PUBLIC "-//W3C//DTD SVG 1.1//EN"
  "http://www.w3.org/Graphics/SVG/1.1/DTD/svg11.dtd">
<!-- Created with matplotlib (http://matplotlib.org/) -->
<svg height="432pt" version="1.1" viewBox="0 0 576 432" width="576pt" xmlns="http://www.w3.org/2000/svg" xmlns:xlink="http://www.w3.org/1999/xlink">
 <defs>
  <style type="text/css">
*{stroke-linecap:butt;stroke-linejoin:round;stroke-miterlimit:100000;}
  </style>
 </defs>
 <g id="figure_1">
  <g id="patch_1">
   <path d="M 0 432 
L 576 432 
L 576 0 
L 0 0 
z
" style="fill:#ffffff;"/>
  </g>
  <g id="axes_1">
   <g id="patch_2">
    <path d="M 72 388.8 
L 518.4 388.8 
L 518.4 43.2 
L 72 43.2 
z
" style="fill:#ffffff;"/>
   </g>
   <g id="line2d_1">
    <path clip-path="url(#p4285695eac)" d="M 72 350.438562 
L 72.255086 350.4 
L 73.913143 350.322894 
L 74.104457 350.322894 
L 75.762514 350.4 
L 75.953829 350.4 
L 76.591543 350.477106 
L 76.719086 350.477106 
L 76.9104 350.477106 
L 77.548114 350.4 
L 77.8032 351.710834 
L 78.122057 351.171075 
L 78.313371 350.4 
L 78.377143 350.592773 
L 78.504686 351.672272 
L 78.632229 351.363849 
L 78.696 351.248181 
L 78.823543 350.438562 
L 78.951086 350.4 
L 79.1424 350.477106 
L 79.461257 350.4 
L 81.693257 350.477106 
L 81.8208 350.438562 
L 82.649829 350.515668 
L 82.904914 350.592773 
L 83.096229 350.592773 
L 84.180343 350.669879 
L 84.435429 350.708441 
L 84.881829 350.785547 
L 85.136914 350.824091 
L 85.328229 350.824091 
L 86.157257 350.901196 
L 86.348571 350.939758 
L 86.539886 350.939758 
L 86.7312 350.939758 
L 88.006629 351.016864 
L 88.197943 351.055408 
L 88.453029 350.978302 
L 88.580571 351.016864 
L 90.493714 351.09397 
L 90.7488 351.132513 
L 91.705371 351.09397 
L 91.832914 351.055408 
L 92.024229 351.171075 
L 92.215543 351.132513 
L 92.470629 351.171075 
L 94.511314 351.209637 
L 94.638857 351.248181 
L 97.189714 351.286743 
L 97.317257 351.325287 
L 98.3376 351.402393 
L 98.592686 351.479498 
L 98.911543 351.402393 
L 100.059429 351.440955 
L 100.186971 351.479498 
L 102.036343 351.556604 
L 102.227657 351.556604 
L 103.758171 351.63371 
L 104.013257 351.672272 
L 104.268343 351.63371 
L 104.5872 351.710834 
L 104.714743 351.672272 
L 107.138057 351.749377 
L 107.456914 351.865045 
L 107.648229 351.749377 
L 108.413486 351.826483 
L 108.6048 351.865045 
L 108.796114 351.865045 
L 110.773029 351.903589 
L 110.964343 351.980695 
L 112.877486 352.0578 
L 113.0688 352.0578 
L 115.683429 352.134924 
L 115.810971 352.134924 
L 116.066057 352.096362 
L 116.384914 352.173468 
L 117.787886 352.096362 
L 117.915429 352.134924 
L 118.042971 352.173468 
L 119.3184 352.250574 
L 119.509714 352.250574 
L 120.147429 352.327679 
L 120.338743 352.327679 
L 122.4432 352.404785 
L 122.570743 352.404785 
L 122.825829 352.250574 
L 123.017143 353.44574 
L 123.144686 353.407178 
L 123.208457 353.330072 
L 123.399771 352.443347 
L 124.356343 352.905981 
L 124.547657 352.905981 
L 124.930286 353.021649 
L 125.1216 352.828876 
L 125.631771 353.021649 
L 125.886857 352.983087 
L 126.141943 353.021649 
L 128.055086 353.098755 
L 128.2464 353.098755 
L 130.159543 353.175861 
L 130.350857 353.175861 
L 132.519086 353.252966 
L 132.774171 353.291528 
L 133.794514 353.368634 
L 134.0496 353.407178 
L 134.240914 353.368634 
L 134.368457 353.44574 
L 134.559771 353.44574 
L 135.516343 353.484283 
L 135.707657 353.561407 
L 135.8352 353.522845 
L 138.130971 353.484283 
L 138.194743 353.638513 
L 138.258514 353.599951 
L 138.5136 353.638513 
L 138.704914 353.599951 
L 138.896229 353.599951 
L 139.980343 353.677057 
L 140.2992 353.754163 
L 140.554286 353.715619 
L 140.809371 353.754163 
L 141.064457 353.715619 
L 143.487771 353.792725 
L 143.551543 57.465143 
L 143.679086 355.142102 
L 148.7808 355.219208 
L 148.972114 355.219208 
L 151.4592 355.296313 
L 151.650514 355.296313 
L 155.413029 355.296313 
L 155.540571 355.643298 
L 155.604343 355.566193 
L 155.731886 355.142102 
L 155.795657 355.219208 
L 155.9232 355.373419 
L 156.178286 355.334857 
L 156.433371 355.411963 
L 156.688457 355.373419 
L 156.879771 355.411963 
L 157.071086 355.411963 
L 158.729143 355.489087 
L 158.856686 355.489087 
L 159.111771 355.450525 
L 162.810514 355.527631 
L 162.938057 355.527631 
L 163.129371 355.489087 
L 163.320686 355.643298 
L 163.512 355.990283 
L 163.830857 355.758948 
L 163.9584 355.411963 
L 164.085943 355.604736 
L 164.277257 355.527631 
L 166.126629 355.604736 
L 166.445486 355.874615 
L 166.764343 355.720404 
L 166.955657 355.79751 
L 167.402057 355.79751 
L 167.593371 355.566193 
L 168.613714 355.643298 
L 168.805029 355.681842 
L 168.996343 355.643298 
L 169.251429 355.681842 
L 169.442743 355.643298 
L 169.634057 355.643298 
L 174.608229 355.720404 
L 174.799543 355.720404 
L 174.990857 355.720404 
L 175.245943 355.758948 
L 179.391086 355.836053 
L 179.5824 355.836053 
L 179.773714 355.79751 
L 180.0288 355.836053 
L 180.220114 355.836053 
L 184.110171 355.874615 
L 184.301486 355.951721 
L 184.4928 355.913177 
L 184.620343 355.951721 
L 187.553829 356.028827 
L 187.745143 356.028827 
L 188.701714 356.105933 
L 188.829257 356.183038 
L 189.020571 355.951721 
L 189.275657 356.028827 
L 189.466971 355.990283 
L 189.658286 356.028827 
L 189.8496 355.990283 
L 190.104686 356.028827 
L 190.296 356.028827 
L 192.655543 356.067389 
L 192.783086 356.105933 
L 192.9744 356.183038 
L 193.101943 356.2216 
L 193.293257 355.951721 
L 193.484571 356.067389 
L 195.844114 356.105933 
L 195.907886 356.183038 
L 195.971657 356.105933 
L 196.226743 356.144495 
L 202.667657 356.2216 
L 202.922743 356.260144 
L 206.493943 356.33725 
L 206.685257 356.375812 
L 206.940343 356.33725 
L 207.195429 356.375812 
L 209.873829 356.452917 
L 210.128914 356.491479 
L 212.934857 356.452917 
L 212.998629 57.465143 
L 213.0624 357.339661 
L 213.126171 357.301099 
L 213.317486 357.339661 
L 213.5088 357.339661 
L 227.729829 357.416766 
L 227.921143 357.416766 
L 230.790857 357.378204 
L 230.9184 357.339661 
L 232.066286 357.378204 
L 232.2576 357.493872 
L 232.448914 357.493872 
L 233.341714 357.570978 
L 233.469257 357.648083 
L 233.660571 357.648083 
L 241.823314 357.686627 
L 241.950857 357.725189 
L 244.948114 357.763733 
L 245.075657 357.840857 
L 245.2032 357.802295 
L 246.797486 357.879401 
L 246.925029 358.14928 
L 246.9888 358.110718 
L 247.116343 358.110718 
L 247.371429 358.072174 
L 247.690286 358.14928 
L 247.945371 358.110718 
L 248.200457 358.14928 
L 248.391771 358.226385 
L 248.519314 358.264929 
L 248.646857 358.226385 
L 253.493486 358.303491 
L 253.6848 358.303491 
L 254.1312 358.380597 
L 254.258743 358.534808 
L 254.450057 358.457703 
L 255.853029 358.380597 
L 256.108114 358.303491 
L 256.235657 358.342053 
L 257.256 358.264929 
L 257.383543 358.68902 
L 257.574857 358.419159 
L 257.766171 358.380597 
L 257.957486 358.57337 
L 258.1488 358.419159 
L 258.467657 358.496265 
L 259.551771 358.57337 
L 259.679314 358.57337 
L 259.9344 358.534808 
L 261.975086 358.496265 
L 262.038857 358.303491 
L 262.102629 357.532416 
L 262.230171 358.727582 
L 262.357714 358.534808 
L 262.867886 358.496265 
L 262.931657 358.419159 
L 262.995429 357.917963 
L 263.0592 357.956506 
L 263.122971 358.110718 
L 263.186743 358.881793 
L 263.250514 358.84325 
L 263.441829 358.611914 
L 263.696914 358.57337 
L 265.418743 358.650476 
L 265.610057 358.68902 
L 265.801371 358.68902 
L 266.120229 358.766144 
L 266.311543 358.727582 
L 266.566629 358.804688 
L 266.821714 358.766144 
L 268.798629 358.804688 
L 268.989943 358.881793 
L 269.245029 358.84325 
L 269.436343 358.84325 
L 269.627657 358.804688 
L 269.7552 358.881793 
L 269.946514 358.881793 
L 270.137829 358.881793 
L 271.030629 358.958899 
L 271.221943 358.958899 
L 273.135086 359.036005 
L 273.3264 359.074567 
L 273.517714 359.036005 
L 273.645257 359.074567 
L 273.709029 358.997461 
L 273.7728 359.074567 
L 279.257143 359.151672 
L 279.448457 359.190216 
L 279.639771 359.11311 
L 279.831086 359.151672 
L 280.0224 359.151672 
L 282.190629 359.190216 
L 282.2544 57.465143 
L 282.381943 361.426337 
L 283.5936 361.387775 
L 283.721143 361.079352 
L 283.784914 361.73476 
L 283.848686 361.541986 
L 284.04 361.426337 
L 285.3792 361.426337 
L 285.506743 361.002246 
L 285.570514 361.117896 
L 285.634286 361.657654 
L 285.698057 361.503442 
L 285.889371 361.426337 
L 287.101029 361.503442 
L 287.356114 361.541986 
L 287.802514 361.46488 
L 287.866286 361.426337 
L 287.930057 361.696216 
L 287.993829 361.580548 
L 288.121371 361.541986 
L 290.480914 361.580548 
L 290.608457 361.117896 
L 290.672229 361.888971 
L 290.736 361.73476 
L 290.863543 361.61911 
L 290.991086 361.61911 
L 291.118629 362.660046 
L 291.1824 362.582941 
L 291.501257 360.076959 
L 291.883886 359.922748 
L 291.947657 360.308276 
L 292.011429 360.154065 
L 292.202743 359.999854 
L 292.5216 360.076959 
L 292.712914 360.038397 
L 292.776686 359.922748 
L 292.840457 359.344446 
L 292.904229 359.691412 
L 292.968 360.231171 
L 293.031771 360.115503 
L 293.4144 359.884186 
L 293.478171 359.460095 
L 293.605714 360.231171 
L 293.669486 360.076959 
L 293.924571 360.038397 
L 294.179657 360.115503 
L 294.498514 360.038397 
L 294.7536 360.076959 
L 298.388571 360.038397 
L 298.452343 359.884186 
L 298.516114 359.421552 
L 298.579886 360.192627 
L 298.643657 360.154065 
L 298.834971 360.076959 
L 299.090057 359.845642 
L 299.153829 359.961292 
L 299.2176 360.154065 
L 299.281371 360.115503 
L 299.472686 360.076959 
L 299.600229 360.076959 
L 299.791543 360.038397 
L 300.046629 360.076959 
L 300.811886 360.038397 
L 300.875657 360.192627 
L 300.939429 360.115503 
L 301.194514 360.076959 
L 301.577143 360.038397 
L 301.640914 359.845642 
L 301.704686 359.884186 
L 301.768457 360.192627 
L 301.832229 360.115503 
L 302.087314 360.076959 
L 302.469943 360.038397 
L 302.533714 360.192627 
L 302.597486 360.154065 
L 302.852571 360.115503 
L 303.107657 360.154065 
L 303.298971 360.115503 
L 303.490286 360.154065 
L 303.6816 360.115503 
L 303.872914 360.115503 
L 304.701943 360.076959 
L 304.765714 359.845642 
L 304.829486 359.884186 
L 304.893257 360.269733 
L 304.957029 360.154065 
L 305.148343 360.115503 
L 305.339657 360.154065 
L 305.530971 360.154065 
L 308.783314 360.115503 
L 308.847086 360.308276 
L 308.910857 360.269733 
L 309.229714 360.192627 
L 309.548571 360.269733 
L 309.803657 360.231171 
L 310.058743 360.269733 
L 310.250057 360.231171 
L 310.3776 360.115503 
L 310.441371 360.308276 
L 310.505143 360.231171 
L 314.3952 360.308276 
L 314.650286 360.346838 
L 315.224229 360.308276 
L 315.415543 360.231171 
L 315.670629 360.269733 
L 315.861943 360.231171 
L 316.1808 360.308276 
L 317.711314 360.346838 
L 317.838857 359.845642 
L 317.902629 360.154065 
L 317.9664 360.115503 
L 318.221486 360.192627 
L 318.476571 360.154065 
L 318.667886 360.192627 
L 318.922971 360.154065 
L 319.050514 360.154065 
L 319.178057 360.423944 
L 319.496914 360.346838 
L 319.752 360.308276 
L 319.879543 360.076959 
L 319.943314 360.462488 
L 320.007086 360.423944 
L 320.1984 360.346838 
L 320.453486 360.385382 
L 320.6448 360.385382 
L 327.277029 360.385382 
L 327.468343 360.732367 
L 327.723429 360.308276 
L 328.169829 360.462488 
L 328.488686 360.385382 
L 328.552457 360.50105 
L 328.616229 360.462488 
L 328.807543 360.423944 
L 329.062629 360.462488 
L 330.4656 360.539594 
L 330.656914 360.539594 
L 331.677257 360.616699 
L 331.868571 360.655261 
L 332.123657 360.616699 
L 342.5184 360.539594 
L 342.645943 360.462488 
L 342.773486 360.616699 
L 347.811429 360.693823 
L 348.002743 360.693823 
L 363.754286 360.770929 
L 363.9456 360.770929 
L 374.021486 360.848035 
L 374.2128 360.886578 
L 374.340343 360.809473 
L 374.595429 360.848035 
L 374.850514 360.809473 
L 375.1056 360.848035 
L 375.424457 360.770929 
L 375.615771 360.809473 
L 375.807086 360.770929 
L 375.9984 360.809473 
L 376.253486 360.770929 
L 384.990171 360.809473 
L 385.181486 360.963684 
L 385.500343 360.886578 
L 385.755429 360.92514 
L 388.625143 360.848035 
L 388.816457 360.848035 
L 391.367314 360.92514 
L 391.494857 360.963684 
L 391.6224 360.963684 
L 391.813714 361.002246 
L 392.005029 361.002246 
L 394.492114 360.963684 
L 394.683429 360.886578 
L 394.7472 360.963684 
L 394.810971 360.886578 
L 394.938514 361.002246 
L 395.066057 361.19502 
L 395.703771 360.92514 
L 398.573486 360.848035 
L 398.701029 360.886578 
L 398.828571 361.04079 
L 399.019886 360.886578 
L 399.2112 360.92514 
L 399.466286 360.886578 
L 401.124343 360.963684 
L 401.315657 360.963684 
L 408.011657 360.886578 
L 408.266743 360.848035 
L 408.458057 360.848035 
L 408.521829 360.848035 
L 408.713143 360.462488 
L 408.776914 360.732367 
L 408.840686 360.616699 
L 409.095771 360.578156 
L 414.516343 360.616699 
L 414.643886 360.693823 
L 414.8352 360.693823 
L 418.342629 360.655261 
L 418.597714 360.462488 
L 418.789029 360.809473 
L 419.044114 360.732367 
L 419.235429 360.732367 
L 420.893486 360.809473 
L 421.148571 360.848035 
L 422.296457 360.848035 
L 422.424 361.541986 
L 422.551543 360.886578 
L 422.742857 360.92514 
L 422.934171 360.848035 
L 423.125486 360.848035 
L 423.380571 360.92514 
L 423.508114 361.696216 
L 423.699429 360.809473 
L 424.2096 360.886578 
L 424.337143 360.92514 
L 424.528457 360.848035 
L 424.719771 360.848035 
L 424.847314 360.809473 
L 427.717029 360.848035 
L 427.908343 361.04079 
L 428.2272 360.848035 
L 428.290971 361.19502 
L 428.418514 362.197412 
L 428.737371 362.274518 
L 429.056229 362.081744 
L 429.247543 360.886578 
L 429.375086 360.92514 
L 432.2448 361.002246 
L 432.499886 361.657654 
L 432.6912 361.657654 
L 433.902857 361.696216 
L 434.0304 361.773322 
L 434.221714 361.696216 
L 435.752229 361.773322 
L 436.134857 362.582941 
L 436.2624 362.505835 
L 436.517486 362.582941 
L 436.7088 362.582941 
L 439.8336 362.544379 
L 440.024914 361.349231 
L 440.088686 361.426337 
L 440.216229 361.888971 
L 440.28 361.773322 
L 440.535086 361.73476 
L 441.300343 361.657654 
L 441.6192 361.580548 
L 443.787429 361.541986 
L 443.914971 361.426337 
L 444.425143 361.387775 
L 444.552686 362.120306 
L 444.616457 362.081744 
L 444.871543 362.043182 
L 445.381714 362.120306 
L 445.764343 362.235956 
L 445.891886 362.197412 
L 446.0832 361.966077 
L 446.274514 361.966077 
L 448.506514 362.043182 
L 448.7616 362.235956 
L 448.952914 362.235956 
L 449.080457 362.15885 
L 449.335543 361.966077 
L 450.929829 362.043182 
L 451.184914 362.081744 
L 454.054629 362.15885 
L 454.245943 362.197412 
L 454.373486 362.15885 
L 454.501029 362.274518 
L 454.692343 362.15885 
L 460.049143 362.235956 
L 460.240457 362.235956 
L 460.431771 362.197412 
L 460.623086 362.235956 
L 460.878171 362.197412 
L 461.069486 362.235956 
L 461.2608 362.197412 
L 461.515886 362.274518 
L 461.643429 363.54679 
L 461.770971 363.508228 
L 462.408686 363.508228 
L 462.663771 362.467273 
L 462.791314 362.274518 
L 462.982629 362.15885 
L 463.237714 362.197412 
L 463.429029 362.197412 
L 468.722057 362.274518 
L 468.913371 362.274518 
L 469.997486 362.351624 
L 470.1888 362.390167 
L 470.380114 362.390167 
L 470.571429 362.467273 
L 470.954057 362.351624 
L 472.165714 362.390167 
L 472.4208 362.544379 
L 472.675886 362.351624 
L 472.930971 362.390167 
L 473.058514 362.428729 
L 473.186057 362.544379 
L 473.568686 362.582941 
L 473.76 362.390167 
L 474.015086 362.428729 
L 474.2064 362.428729 
L 477.713829 362.505835 
L 477.905143 362.505835 
L 479.1168 362.582941 
L 479.308114 362.582941 
L 480.200914 362.505835 
L 480.456 362.467273 
L 480.711086 362.505835 
L 482.369143 362.582941 
L 482.432914 362.698608 
L 482.496686 362.660046 
L 482.751771 362.698608 
L 483.198171 362.544379 
L 483.708343 362.467273 
L 483.835886 362.428729 
L 483.963429 362.505835 
L 484.218514 362.544379 
L 485.940343 362.544379 
L 486.067886 362.737152 
L 486.2592 362.737152 
L 486.450514 362.698608 
L 486.7056 362.544379 
L 486.896914 362.505835 
L 487.279543 362.621503 
L 487.5984 362.544379 
L 488.299886 362.621503 
L 488.4912 362.660046 
L 488.746286 362.621503 
L 490.149257 362.660046 
L 490.213029 57.465143 
L 490.2768 362.15885 
L 490.340571 362.120306 
L 492.763886 362.081744 
L 492.763886 362.081744 
" style="fill:none;stroke:#556b2f;stroke-linecap:square;"/>
   </g>
   <g id="patch_3">
    <path d="M 72 388.8 
L 518.4 388.8 
" style="fill:none;stroke:#000000;stroke-linecap:square;stroke-linejoin:miter;"/>
   </g>
   <g id="patch_4">
    <path d="M 72 43.2 
L 518.4 43.2 
" style="fill:none;stroke:#000000;stroke-linecap:square;stroke-linejoin:miter;"/>
   </g>
   <g id="patch_5">
    <path d="M 518.4 388.8 
L 518.4 43.2 
" style="fill:none;stroke:#000000;stroke-linecap:square;stroke-linejoin:miter;"/>
   </g>
   <g id="patch_6">
    <path d="M 72 388.8 
L 72 43.2 
" style="fill:none;stroke:#000000;stroke-linecap:square;stroke-linejoin:miter;"/>
   </g>
   <g id="matplotlib.axis_1">
    <g id="xtick_1">
     <g id="line2d_2">
      <path clip-path="url(#p4285695eac)" d="M 72 388.8 
L 72 43.2 
" style="fill:none;stroke:#000000;stroke-dasharray:1.000000,3.000000;stroke-dashoffset:0.0;stroke-width:0.5;"/>
     </g>
     <g id="line2d_3">
      <defs>
       <path d="M 0 0 
L 0 -4 
" id="m8a3c9bc04e" style="stroke:#000000;stroke-width:0.5;"/>
      </defs>
      <g>
       <use style="stroke:#000000;stroke-width:0.5;" x="72.0" xlink:href="#m8a3c9bc04e" y="388.8"/>
      </g>
     </g>
     <g id="line2d_4">
      <defs>
       <path d="M 0 0 
L 0 4 
" id="m15a92eae4c" style="stroke:#000000;stroke-width:0.5;"/>
      </defs>
      <g>
       <use style="stroke:#000000;stroke-width:0.5;" x="72.0" xlink:href="#m15a92eae4c" y="43.2"/>
      </g>
     </g>
     <g id="text_1">
      <!-- 0 -->
      <defs>
       <path d="M 31.78125 66.40625 
Q 24.171875 66.40625 20.328125 58.90625 
Q 16.5 51.421875 16.5 36.375 
Q 16.5 21.390625 20.328125 13.890625 
Q 24.171875 6.390625 31.78125 6.390625 
Q 39.453125 6.390625 43.28125 13.890625 
Q 47.125 21.390625 47.125 36.375 
Q 47.125 51.421875 43.28125 58.90625 
Q 39.453125 66.40625 31.78125 66.40625 
M 31.78125 74.21875 
Q 44.046875 74.21875 50.515625 64.515625 
Q 56.984375 54.828125 56.984375 36.375 
Q 56.984375 17.96875 50.515625 8.265625 
Q 44.046875 -1.421875 31.78125 -1.421875 
Q 19.53125 -1.421875 13.0625 8.265625 
Q 6.59375 17.96875 6.59375 36.375 
Q 6.59375 54.828125 13.0625 64.515625 
Q 19.53125 74.21875 31.78125 74.21875 
" id="BitstreamVeraSans-Roman-30"/>
      </defs>
      <g transform="translate(68.1825 401.918125)scale(0.12 -0.12)">
       <use xlink:href="#BitstreamVeraSans-Roman-30"/>
      </g>
     </g>
    </g>
    <g id="xtick_2">
     <g id="line2d_5">
      <path clip-path="url(#p4285695eac)" d="M 135.771429 388.8 
L 135.771429 43.2 
" style="fill:none;stroke:#000000;stroke-dasharray:1.000000,3.000000;stroke-dashoffset:0.0;stroke-width:0.5;"/>
     </g>
     <g id="line2d_6">
      <g>
       <use style="stroke:#000000;stroke-width:0.5;" x="135.771428571" xlink:href="#m8a3c9bc04e" y="388.8"/>
      </g>
     </g>
     <g id="line2d_7">
      <g>
       <use style="stroke:#000000;stroke-width:0.5;" x="135.771428571" xlink:href="#m15a92eae4c" y="43.2"/>
      </g>
     </g>
     <g id="text_2">
      <!-- 1000 -->
      <defs>
       <path d="M 12.40625 8.296875 
L 28.515625 8.296875 
L 28.515625 63.921875 
L 10.984375 60.40625 
L 10.984375 69.390625 
L 28.421875 72.90625 
L 38.28125 72.90625 
L 38.28125 8.296875 
L 54.390625 8.296875 
L 54.390625 0 
L 12.40625 0 
z
" id="BitstreamVeraSans-Roman-31"/>
      </defs>
      <g transform="translate(120.501428571 401.918125)scale(0.12 -0.12)">
       <use xlink:href="#BitstreamVeraSans-Roman-31"/>
       <use x="63.623046875" xlink:href="#BitstreamVeraSans-Roman-30"/>
       <use x="127.24609375" xlink:href="#BitstreamVeraSans-Roman-30"/>
       <use x="190.869140625" xlink:href="#BitstreamVeraSans-Roman-30"/>
      </g>
     </g>
    </g>
    <g id="xtick_3">
     <g id="line2d_8">
      <path clip-path="url(#p4285695eac)" d="M 199.542857 388.8 
L 199.542857 43.2 
" style="fill:none;stroke:#000000;stroke-dasharray:1.000000,3.000000;stroke-dashoffset:0.0;stroke-width:0.5;"/>
     </g>
     <g id="line2d_9">
      <g>
       <use style="stroke:#000000;stroke-width:0.5;" x="199.542857143" xlink:href="#m8a3c9bc04e" y="388.8"/>
      </g>
     </g>
     <g id="line2d_10">
      <g>
       <use style="stroke:#000000;stroke-width:0.5;" x="199.542857143" xlink:href="#m15a92eae4c" y="43.2"/>
      </g>
     </g>
     <g id="text_3">
      <!-- 2000 -->
      <defs>
       <path d="M 19.1875 8.296875 
L 53.609375 8.296875 
L 53.609375 0 
L 7.328125 0 
L 7.328125 8.296875 
Q 12.9375 14.109375 22.625 23.890625 
Q 32.328125 33.6875 34.8125 36.53125 
Q 39.546875 41.84375 41.421875 45.53125 
Q 43.3125 49.21875 43.3125 52.78125 
Q 43.3125 58.59375 39.234375 62.25 
Q 35.15625 65.921875 28.609375 65.921875 
Q 23.96875 65.921875 18.8125 64.3125 
Q 13.671875 62.703125 7.8125 59.421875 
L 7.8125 69.390625 
Q 13.765625 71.78125 18.9375 73 
Q 24.125 74.21875 28.421875 74.21875 
Q 39.75 74.21875 46.484375 68.546875 
Q 53.21875 62.890625 53.21875 53.421875 
Q 53.21875 48.921875 51.53125 44.890625 
Q 49.859375 40.875 45.40625 35.40625 
Q 44.1875 33.984375 37.640625 27.21875 
Q 31.109375 20.453125 19.1875 8.296875 
" id="BitstreamVeraSans-Roman-32"/>
      </defs>
      <g transform="translate(184.272857143 401.918125)scale(0.12 -0.12)">
       <use xlink:href="#BitstreamVeraSans-Roman-32"/>
       <use x="63.623046875" xlink:href="#BitstreamVeraSans-Roman-30"/>
       <use x="127.24609375" xlink:href="#BitstreamVeraSans-Roman-30"/>
       <use x="190.869140625" xlink:href="#BitstreamVeraSans-Roman-30"/>
      </g>
     </g>
    </g>
    <g id="xtick_4">
     <g id="line2d_11">
      <path clip-path="url(#p4285695eac)" d="M 263.314286 388.8 
L 263.314286 43.2 
" style="fill:none;stroke:#000000;stroke-dasharray:1.000000,3.000000;stroke-dashoffset:0.0;stroke-width:0.5;"/>
     </g>
     <g id="line2d_12">
      <g>
       <use style="stroke:#000000;stroke-width:0.5;" x="263.314285714" xlink:href="#m8a3c9bc04e" y="388.8"/>
      </g>
     </g>
     <g id="line2d_13">
      <g>
       <use style="stroke:#000000;stroke-width:0.5;" x="263.314285714" xlink:href="#m15a92eae4c" y="43.2"/>
      </g>
     </g>
     <g id="text_4">
      <!-- 3000 -->
      <defs>
       <path d="M 40.578125 39.3125 
Q 47.65625 37.796875 51.625 33 
Q 55.609375 28.21875 55.609375 21.1875 
Q 55.609375 10.40625 48.1875 4.484375 
Q 40.765625 -1.421875 27.09375 -1.421875 
Q 22.515625 -1.421875 17.65625 -0.515625 
Q 12.796875 0.390625 7.625 2.203125 
L 7.625 11.71875 
Q 11.71875 9.328125 16.59375 8.109375 
Q 21.484375 6.890625 26.8125 6.890625 
Q 36.078125 6.890625 40.9375 10.546875 
Q 45.796875 14.203125 45.796875 21.1875 
Q 45.796875 27.640625 41.28125 31.265625 
Q 36.765625 34.90625 28.71875 34.90625 
L 20.21875 34.90625 
L 20.21875 43.015625 
L 29.109375 43.015625 
Q 36.375 43.015625 40.234375 45.921875 
Q 44.09375 48.828125 44.09375 54.296875 
Q 44.09375 59.90625 40.109375 62.90625 
Q 36.140625 65.921875 28.71875 65.921875 
Q 24.65625 65.921875 20.015625 65.03125 
Q 15.375 64.15625 9.8125 62.3125 
L 9.8125 71.09375 
Q 15.4375 72.65625 20.34375 73.4375 
Q 25.25 74.21875 29.59375 74.21875 
Q 40.828125 74.21875 47.359375 69.109375 
Q 53.90625 64.015625 53.90625 55.328125 
Q 53.90625 49.265625 50.4375 45.09375 
Q 46.96875 40.921875 40.578125 39.3125 
" id="BitstreamVeraSans-Roman-33"/>
      </defs>
      <g transform="translate(248.044285714 401.918125)scale(0.12 -0.12)">
       <use xlink:href="#BitstreamVeraSans-Roman-33"/>
       <use x="63.623046875" xlink:href="#BitstreamVeraSans-Roman-30"/>
       <use x="127.24609375" xlink:href="#BitstreamVeraSans-Roman-30"/>
       <use x="190.869140625" xlink:href="#BitstreamVeraSans-Roman-30"/>
      </g>
     </g>
    </g>
    <g id="xtick_5">
     <g id="line2d_14">
      <path clip-path="url(#p4285695eac)" d="M 327.085714 388.8 
L 327.085714 43.2 
" style="fill:none;stroke:#000000;stroke-dasharray:1.000000,3.000000;stroke-dashoffset:0.0;stroke-width:0.5;"/>
     </g>
     <g id="line2d_15">
      <g>
       <use style="stroke:#000000;stroke-width:0.5;" x="327.085714286" xlink:href="#m8a3c9bc04e" y="388.8"/>
      </g>
     </g>
     <g id="line2d_16">
      <g>
       <use style="stroke:#000000;stroke-width:0.5;" x="327.085714286" xlink:href="#m15a92eae4c" y="43.2"/>
      </g>
     </g>
     <g id="text_5">
      <!-- 4000 -->
      <defs>
       <path d="M 37.796875 64.3125 
L 12.890625 25.390625 
L 37.796875 25.390625 
z
M 35.203125 72.90625 
L 47.609375 72.90625 
L 47.609375 25.390625 
L 58.015625 25.390625 
L 58.015625 17.1875 
L 47.609375 17.1875 
L 47.609375 0 
L 37.796875 0 
L 37.796875 17.1875 
L 4.890625 17.1875 
L 4.890625 26.703125 
z
" id="BitstreamVeraSans-Roman-34"/>
      </defs>
      <g transform="translate(311.815714286 401.918125)scale(0.12 -0.12)">
       <use xlink:href="#BitstreamVeraSans-Roman-34"/>
       <use x="63.623046875" xlink:href="#BitstreamVeraSans-Roman-30"/>
       <use x="127.24609375" xlink:href="#BitstreamVeraSans-Roman-30"/>
       <use x="190.869140625" xlink:href="#BitstreamVeraSans-Roman-30"/>
      </g>
     </g>
    </g>
    <g id="xtick_6">
     <g id="line2d_17">
      <path clip-path="url(#p4285695eac)" d="M 390.857143 388.8 
L 390.857143 43.2 
" style="fill:none;stroke:#000000;stroke-dasharray:1.000000,3.000000;stroke-dashoffset:0.0;stroke-width:0.5;"/>
     </g>
     <g id="line2d_18">
      <g>
       <use style="stroke:#000000;stroke-width:0.5;" x="390.857142857" xlink:href="#m8a3c9bc04e" y="388.8"/>
      </g>
     </g>
     <g id="line2d_19">
      <g>
       <use style="stroke:#000000;stroke-width:0.5;" x="390.857142857" xlink:href="#m15a92eae4c" y="43.2"/>
      </g>
     </g>
     <g id="text_6">
      <!-- 5000 -->
      <defs>
       <path d="M 10.796875 72.90625 
L 49.515625 72.90625 
L 49.515625 64.59375 
L 19.828125 64.59375 
L 19.828125 46.734375 
Q 21.96875 47.46875 24.109375 47.828125 
Q 26.265625 48.1875 28.421875 48.1875 
Q 40.625 48.1875 47.75 41.5 
Q 54.890625 34.8125 54.890625 23.390625 
Q 54.890625 11.625 47.5625 5.09375 
Q 40.234375 -1.421875 26.90625 -1.421875 
Q 22.3125 -1.421875 17.546875 -0.640625 
Q 12.796875 0.140625 7.71875 1.703125 
L 7.71875 11.625 
Q 12.109375 9.234375 16.796875 8.0625 
Q 21.484375 6.890625 26.703125 6.890625 
Q 35.15625 6.890625 40.078125 11.328125 
Q 45.015625 15.765625 45.015625 23.390625 
Q 45.015625 31 40.078125 35.4375 
Q 35.15625 39.890625 26.703125 39.890625 
Q 22.75 39.890625 18.8125 39.015625 
Q 14.890625 38.140625 10.796875 36.28125 
z
" id="BitstreamVeraSans-Roman-35"/>
      </defs>
      <g transform="translate(375.587142857 401.918125)scale(0.12 -0.12)">
       <use xlink:href="#BitstreamVeraSans-Roman-35"/>
       <use x="63.623046875" xlink:href="#BitstreamVeraSans-Roman-30"/>
       <use x="127.24609375" xlink:href="#BitstreamVeraSans-Roman-30"/>
       <use x="190.869140625" xlink:href="#BitstreamVeraSans-Roman-30"/>
      </g>
     </g>
    </g>
    <g id="xtick_7">
     <g id="line2d_20">
      <path clip-path="url(#p4285695eac)" d="M 454.628571 388.8 
L 454.628571 43.2 
" style="fill:none;stroke:#000000;stroke-dasharray:1.000000,3.000000;stroke-dashoffset:0.0;stroke-width:0.5;"/>
     </g>
     <g id="line2d_21">
      <g>
       <use style="stroke:#000000;stroke-width:0.5;" x="454.628571429" xlink:href="#m8a3c9bc04e" y="388.8"/>
      </g>
     </g>
     <g id="line2d_22">
      <g>
       <use style="stroke:#000000;stroke-width:0.5;" x="454.628571429" xlink:href="#m15a92eae4c" y="43.2"/>
      </g>
     </g>
     <g id="text_7">
      <!-- 6000 -->
      <defs>
       <path d="M 33.015625 40.375 
Q 26.375 40.375 22.484375 35.828125 
Q 18.609375 31.296875 18.609375 23.390625 
Q 18.609375 15.53125 22.484375 10.953125 
Q 26.375 6.390625 33.015625 6.390625 
Q 39.65625 6.390625 43.53125 10.953125 
Q 47.40625 15.53125 47.40625 23.390625 
Q 47.40625 31.296875 43.53125 35.828125 
Q 39.65625 40.375 33.015625 40.375 
M 52.59375 71.296875 
L 52.59375 62.3125 
Q 48.875 64.0625 45.09375 64.984375 
Q 41.3125 65.921875 37.59375 65.921875 
Q 27.828125 65.921875 22.671875 59.328125 
Q 17.53125 52.734375 16.796875 39.40625 
Q 19.671875 43.65625 24.015625 45.921875 
Q 28.375 48.1875 33.59375 48.1875 
Q 44.578125 48.1875 50.953125 41.515625 
Q 57.328125 34.859375 57.328125 23.390625 
Q 57.328125 12.15625 50.6875 5.359375 
Q 44.046875 -1.421875 33.015625 -1.421875 
Q 20.359375 -1.421875 13.671875 8.265625 
Q 6.984375 17.96875 6.984375 36.375 
Q 6.984375 53.65625 15.1875 63.9375 
Q 23.390625 74.21875 37.203125 74.21875 
Q 40.921875 74.21875 44.703125 73.484375 
Q 48.484375 72.75 52.59375 71.296875 
" id="BitstreamVeraSans-Roman-36"/>
      </defs>
      <g transform="translate(439.358571429 401.918125)scale(0.12 -0.12)">
       <use xlink:href="#BitstreamVeraSans-Roman-36"/>
       <use x="63.623046875" xlink:href="#BitstreamVeraSans-Roman-30"/>
       <use x="127.24609375" xlink:href="#BitstreamVeraSans-Roman-30"/>
       <use x="190.869140625" xlink:href="#BitstreamVeraSans-Roman-30"/>
      </g>
     </g>
    </g>
    <g id="xtick_8">
     <g id="line2d_23">
      <path clip-path="url(#p4285695eac)" d="M 518.4 388.8 
L 518.4 43.2 
" style="fill:none;stroke:#000000;stroke-dasharray:1.000000,3.000000;stroke-dashoffset:0.0;stroke-width:0.5;"/>
     </g>
     <g id="line2d_24">
      <g>
       <use style="stroke:#000000;stroke-width:0.5;" x="518.4" xlink:href="#m8a3c9bc04e" y="388.8"/>
      </g>
     </g>
     <g id="line2d_25">
      <g>
       <use style="stroke:#000000;stroke-width:0.5;" x="518.4" xlink:href="#m15a92eae4c" y="43.2"/>
      </g>
     </g>
     <g id="text_8">
      <!-- 7000 -->
      <defs>
       <path d="M 8.203125 72.90625 
L 55.078125 72.90625 
L 55.078125 68.703125 
L 28.609375 0 
L 18.3125 0 
L 43.21875 64.59375 
L 8.203125 64.59375 
z
" id="BitstreamVeraSans-Roman-37"/>
      </defs>
      <g transform="translate(503.13 401.918125)scale(0.12 -0.12)">
       <use xlink:href="#BitstreamVeraSans-Roman-37"/>
       <use x="63.623046875" xlink:href="#BitstreamVeraSans-Roman-30"/>
       <use x="127.24609375" xlink:href="#BitstreamVeraSans-Roman-30"/>
       <use x="190.869140625" xlink:href="#BitstreamVeraSans-Roman-30"/>
      </g>
     </g>
    </g>
   </g>
   <g id="matplotlib.axis_2">
    <g id="ytick_1">
     <g id="line2d_26">
      <path clip-path="url(#p4285695eac)" d="M 72 388.8 
L 518.4 388.8 
" style="fill:none;stroke:#000000;stroke-dasharray:1.000000,3.000000;stroke-dashoffset:0.0;stroke-width:0.5;"/>
     </g>
     <g id="line2d_27">
      <defs>
       <path d="M 0 0 
L 4 0 
" id="m10bffafe4f" style="stroke:#000000;stroke-width:0.5;"/>
      </defs>
      <g>
       <use style="stroke:#000000;stroke-width:0.5;" x="72.0" xlink:href="#m10bffafe4f" y="388.8"/>
      </g>
     </g>
     <g id="line2d_28">
      <defs>
       <path d="M 0 0 
L -4 0 
" id="me644bb664f" style="stroke:#000000;stroke-width:0.5;"/>
      </defs>
      <g>
       <use style="stroke:#000000;stroke-width:0.5;" x="518.4" xlink:href="#me644bb664f" y="388.8"/>
      </g>
     </g>
     <g id="text_9">
      <!-- −2 -->
      <defs>
       <path d="M 10.59375 35.5 
L 73.1875 35.5 
L 73.1875 27.203125 
L 10.59375 27.203125 
z
" id="BitstreamVeraSans-Roman-2212"/>
      </defs>
      <g transform="translate(50.309375 392.11125)scale(0.12 -0.12)">
       <use xlink:href="#BitstreamVeraSans-Roman-2212"/>
       <use x="83.7890625" xlink:href="#BitstreamVeraSans-Roman-32"/>
      </g>
     </g>
    </g>
    <g id="ytick_2">
     <g id="line2d_29">
      <path clip-path="url(#p4285695eac)" d="M 72 350.4 
L 518.4 350.4 
" style="fill:none;stroke:#000000;stroke-dasharray:1.000000,3.000000;stroke-dashoffset:0.0;stroke-width:0.5;"/>
     </g>
     <g id="line2d_30">
      <g>
       <use style="stroke:#000000;stroke-width:0.5;" x="72.0" xlink:href="#m10bffafe4f" y="350.4"/>
      </g>
     </g>
     <g id="line2d_31">
      <g>
       <use style="stroke:#000000;stroke-width:0.5;" x="518.4" xlink:href="#me644bb664f" y="350.4"/>
      </g>
     </g>
     <g id="text_10">
      <!-- 0 -->
      <g transform="translate(60.365 353.71125)scale(0.12 -0.12)">
       <use xlink:href="#BitstreamVeraSans-Roman-30"/>
      </g>
     </g>
    </g>
    <g id="ytick_3">
     <g id="line2d_32">
      <path clip-path="url(#p4285695eac)" d="M 72 312 
L 518.4 312 
" style="fill:none;stroke:#000000;stroke-dasharray:1.000000,3.000000;stroke-dashoffset:0.0;stroke-width:0.5;"/>
     </g>
     <g id="line2d_33">
      <g>
       <use style="stroke:#000000;stroke-width:0.5;" x="72.0" xlink:href="#m10bffafe4f" y="312.0"/>
      </g>
     </g>
     <g id="line2d_34">
      <g>
       <use style="stroke:#000000;stroke-width:0.5;" x="518.4" xlink:href="#me644bb664f" y="312.0"/>
      </g>
     </g>
     <g id="text_11">
      <!-- 2 -->
      <g transform="translate(60.365 315.31125)scale(0.12 -0.12)">
       <use xlink:href="#BitstreamVeraSans-Roman-32"/>
      </g>
     </g>
    </g>
    <g id="ytick_4">
     <g id="line2d_35">
      <path clip-path="url(#p4285695eac)" d="M 72 273.6 
L 518.4 273.6 
" style="fill:none;stroke:#000000;stroke-dasharray:1.000000,3.000000;stroke-dashoffset:0.0;stroke-width:0.5;"/>
     </g>
     <g id="line2d_36">
      <g>
       <use style="stroke:#000000;stroke-width:0.5;" x="72.0" xlink:href="#m10bffafe4f" y="273.6"/>
      </g>
     </g>
     <g id="line2d_37">
      <g>
       <use style="stroke:#000000;stroke-width:0.5;" x="518.4" xlink:href="#me644bb664f" y="273.6"/>
      </g>
     </g>
     <g id="text_12">
      <!-- 4 -->
      <g transform="translate(60.365 276.91125)scale(0.12 -0.12)">
       <use xlink:href="#BitstreamVeraSans-Roman-34"/>
      </g>
     </g>
    </g>
    <g id="ytick_5">
     <g id="line2d_38">
      <path clip-path="url(#p4285695eac)" d="M 72 235.2 
L 518.4 235.2 
" style="fill:none;stroke:#000000;stroke-dasharray:1.000000,3.000000;stroke-dashoffset:0.0;stroke-width:0.5;"/>
     </g>
     <g id="line2d_39">
      <g>
       <use style="stroke:#000000;stroke-width:0.5;" x="72.0" xlink:href="#m10bffafe4f" y="235.2"/>
      </g>
     </g>
     <g id="line2d_40">
      <g>
       <use style="stroke:#000000;stroke-width:0.5;" x="518.4" xlink:href="#me644bb664f" y="235.2"/>
      </g>
     </g>
     <g id="text_13">
      <!-- 6 -->
      <g transform="translate(60.365 238.51125)scale(0.12 -0.12)">
       <use xlink:href="#BitstreamVeraSans-Roman-36"/>
      </g>
     </g>
    </g>
    <g id="ytick_6">
     <g id="line2d_41">
      <path clip-path="url(#p4285695eac)" d="M 72 196.8 
L 518.4 196.8 
" style="fill:none;stroke:#000000;stroke-dasharray:1.000000,3.000000;stroke-dashoffset:0.0;stroke-width:0.5;"/>
     </g>
     <g id="line2d_42">
      <g>
       <use style="stroke:#000000;stroke-width:0.5;" x="72.0" xlink:href="#m10bffafe4f" y="196.8"/>
      </g>
     </g>
     <g id="line2d_43">
      <g>
       <use style="stroke:#000000;stroke-width:0.5;" x="518.4" xlink:href="#me644bb664f" y="196.8"/>
      </g>
     </g>
     <g id="text_14">
      <!-- 8 -->
      <defs>
       <path d="M 31.78125 34.625 
Q 24.75 34.625 20.71875 30.859375 
Q 16.703125 27.09375 16.703125 20.515625 
Q 16.703125 13.921875 20.71875 10.15625 
Q 24.75 6.390625 31.78125 6.390625 
Q 38.8125 6.390625 42.859375 10.171875 
Q 46.921875 13.96875 46.921875 20.515625 
Q 46.921875 27.09375 42.890625 30.859375 
Q 38.875 34.625 31.78125 34.625 
M 21.921875 38.8125 
Q 15.578125 40.375 12.03125 44.71875 
Q 8.5 49.078125 8.5 55.328125 
Q 8.5 64.0625 14.71875 69.140625 
Q 20.953125 74.21875 31.78125 74.21875 
Q 42.671875 74.21875 48.875 69.140625 
Q 55.078125 64.0625 55.078125 55.328125 
Q 55.078125 49.078125 51.53125 44.71875 
Q 48 40.375 41.703125 38.8125 
Q 48.828125 37.15625 52.796875 32.3125 
Q 56.78125 27.484375 56.78125 20.515625 
Q 56.78125 9.90625 50.3125 4.234375 
Q 43.84375 -1.421875 31.78125 -1.421875 
Q 19.734375 -1.421875 13.25 4.234375 
Q 6.78125 9.90625 6.78125 20.515625 
Q 6.78125 27.484375 10.78125 32.3125 
Q 14.796875 37.15625 21.921875 38.8125 
M 18.3125 54.390625 
Q 18.3125 48.734375 21.84375 45.5625 
Q 25.390625 42.390625 31.78125 42.390625 
Q 38.140625 42.390625 41.71875 45.5625 
Q 45.3125 48.734375 45.3125 54.390625 
Q 45.3125 60.0625 41.71875 63.234375 
Q 38.140625 66.40625 31.78125 66.40625 
Q 25.390625 66.40625 21.84375 63.234375 
Q 18.3125 60.0625 18.3125 54.390625 
" id="BitstreamVeraSans-Roman-38"/>
      </defs>
      <g transform="translate(60.365 200.11125)scale(0.12 -0.12)">
       <use xlink:href="#BitstreamVeraSans-Roman-38"/>
      </g>
     </g>
    </g>
    <g id="ytick_7">
     <g id="line2d_44">
      <path clip-path="url(#p4285695eac)" d="M 72 158.4 
L 518.4 158.4 
" style="fill:none;stroke:#000000;stroke-dasharray:1.000000,3.000000;stroke-dashoffset:0.0;stroke-width:0.5;"/>
     </g>
     <g id="line2d_45">
      <g>
       <use style="stroke:#000000;stroke-width:0.5;" x="72.0" xlink:href="#m10bffafe4f" y="158.4"/>
      </g>
     </g>
     <g id="line2d_46">
      <g>
       <use style="stroke:#000000;stroke-width:0.5;" x="518.4" xlink:href="#me644bb664f" y="158.4"/>
      </g>
     </g>
     <g id="text_15">
      <!-- 10 -->
      <g transform="translate(52.73 161.71125)scale(0.12 -0.12)">
       <use xlink:href="#BitstreamVeraSans-Roman-31"/>
       <use x="63.623046875" xlink:href="#BitstreamVeraSans-Roman-30"/>
      </g>
     </g>
    </g>
    <g id="ytick_8">
     <g id="line2d_47">
      <path clip-path="url(#p4285695eac)" d="M 72 120 
L 518.4 120 
" style="fill:none;stroke:#000000;stroke-dasharray:1.000000,3.000000;stroke-dashoffset:0.0;stroke-width:0.5;"/>
     </g>
     <g id="line2d_48">
      <g>
       <use style="stroke:#000000;stroke-width:0.5;" x="72.0" xlink:href="#m10bffafe4f" y="120.0"/>
      </g>
     </g>
     <g id="line2d_49">
      <g>
       <use style="stroke:#000000;stroke-width:0.5;" x="518.4" xlink:href="#me644bb664f" y="120.0"/>
      </g>
     </g>
     <g id="text_16">
      <!-- 12 -->
      <g transform="translate(52.73 123.31125)scale(0.12 -0.12)">
       <use xlink:href="#BitstreamVeraSans-Roman-31"/>
       <use x="63.623046875" xlink:href="#BitstreamVeraSans-Roman-32"/>
      </g>
     </g>
    </g>
    <g id="ytick_9">
     <g id="line2d_50">
      <path clip-path="url(#p4285695eac)" d="M 72 81.6 
L 518.4 81.6 
" style="fill:none;stroke:#000000;stroke-dasharray:1.000000,3.000000;stroke-dashoffset:0.0;stroke-width:0.5;"/>
     </g>
     <g id="line2d_51">
      <g>
       <use style="stroke:#000000;stroke-width:0.5;" x="72.0" xlink:href="#m10bffafe4f" y="81.6"/>
      </g>
     </g>
     <g id="line2d_52">
      <g>
       <use style="stroke:#000000;stroke-width:0.5;" x="518.4" xlink:href="#me644bb664f" y="81.6"/>
      </g>
     </g>
     <g id="text_17">
      <!-- 14 -->
      <g transform="translate(52.73 84.91125)scale(0.12 -0.12)">
       <use xlink:href="#BitstreamVeraSans-Roman-31"/>
       <use x="63.623046875" xlink:href="#BitstreamVeraSans-Roman-34"/>
      </g>
     </g>
    </g>
    <g id="ytick_10">
     <g id="line2d_53">
      <path clip-path="url(#p4285695eac)" d="M 72 43.2 
L 518.4 43.2 
" style="fill:none;stroke:#000000;stroke-dasharray:1.000000,3.000000;stroke-dashoffset:0.0;stroke-width:0.5;"/>
     </g>
     <g id="line2d_54">
      <g>
       <use style="stroke:#000000;stroke-width:0.5;" x="72.0" xlink:href="#m10bffafe4f" y="43.2"/>
      </g>
     </g>
     <g id="line2d_55">
      <g>
       <use style="stroke:#000000;stroke-width:0.5;" x="518.4" xlink:href="#me644bb664f" y="43.2"/>
      </g>
     </g>
     <g id="text_18">
      <!-- 16 -->
      <g transform="translate(52.73 46.51125)scale(0.12 -0.12)">
       <use xlink:href="#BitstreamVeraSans-Roman-31"/>
       <use x="63.623046875" xlink:href="#BitstreamVeraSans-Roman-36"/>
      </g>
     </g>
    </g>
    <g id="text_19">
     <!-- $\Delta$Flux Density - nT     0.0=-0.015257$\mu T$ -->
     <defs>
      <path d="M 18.3125 70.21875 
L 18.3125 54.6875 
L 36.8125 54.6875 
L 36.8125 47.703125 
L 18.3125 47.703125 
L 18.3125 18.015625 
Q 18.3125 11.328125 20.140625 9.421875 
Q 21.96875 7.515625 27.59375 7.515625 
L 36.8125 7.515625 
L 36.8125 0 
L 27.59375 0 
Q 17.1875 0 13.234375 3.875 
Q 9.28125 7.765625 9.28125 18.015625 
L 9.28125 47.703125 
L 2.6875 47.703125 
L 2.6875 54.6875 
L 9.28125 54.6875 
L 9.28125 70.21875 
z
" id="BitstreamVeraSans-Roman-74"/>
      <path d="M 44.28125 53.078125 
L 44.28125 44.578125 
Q 40.484375 46.53125 36.375 47.5 
Q 32.28125 48.484375 27.875 48.484375 
Q 21.1875 48.484375 17.84375 46.4375 
Q 14.5 44.390625 14.5 40.28125 
Q 14.5 37.15625 16.890625 35.375 
Q 19.28125 33.59375 26.515625 31.984375 
L 29.59375 31.296875 
Q 39.15625 29.25 43.1875 25.515625 
Q 47.21875 21.78125 47.21875 15.09375 
Q 47.21875 7.46875 41.1875 3.015625 
Q 35.15625 -1.421875 24.609375 -1.421875 
Q 20.21875 -1.421875 15.453125 -0.5625 
Q 10.6875 0.296875 5.421875 2 
L 5.421875 11.28125 
Q 10.40625 8.6875 15.234375 7.390625 
Q 20.0625 6.109375 24.8125 6.109375 
Q 31.15625 6.109375 34.5625 8.28125 
Q 37.984375 10.453125 37.984375 14.40625 
Q 37.984375 18.0625 35.515625 20.015625 
Q 33.0625 21.96875 24.703125 23.78125 
L 21.578125 24.515625 
Q 13.234375 26.265625 9.515625 29.90625 
Q 5.8125 33.546875 5.8125 39.890625 
Q 5.8125 47.609375 11.28125 51.796875 
Q 16.75 56 26.8125 56 
Q 31.78125 56 36.171875 55.265625 
Q 40.578125 54.546875 44.28125 53.078125 
" id="BitstreamVeraSans-Roman-73"/>
      <path d="M 5.421875 0 
Q 4.59375 0 4.59375 0.78125 
Q 4.640625 0.875 4.65625 0.921875 
Q 4.6875 0.984375 4.6875 1.125 
L 39.109375 70.515625 
Q 39.546875 71.578125 40.921875 71.578125 
L 42.28125 71.578125 
Q 43.65625 71.578125 44.09375 70.515625 
L 78.515625 1.125 
Q 78.5625 1.03125 78.578125 0.953125 
Q 78.609375 0.875 78.609375 0.78125 
Q 78.609375 0 77.78125 0 
z
M 12.015625 8.015625 
L 64.703125 8.015625 
L 38.375 61.078125 
z
" id="Cmr10-a2"/>
      <path id="BitstreamVeraSans-Roman-20"/>
      <path d="M 8.5 21.578125 
L 8.5 54.6875 
L 17.484375 54.6875 
L 17.484375 21.921875 
Q 17.484375 14.15625 20.5 10.265625 
Q 23.53125 6.390625 29.59375 6.390625 
Q 36.859375 6.390625 41.078125 11.03125 
Q 45.3125 15.671875 45.3125 23.6875 
L 45.3125 54.6875 
L 54.296875 54.6875 
L 54.296875 0 
L 45.3125 0 
L 45.3125 8.40625 
Q 42.046875 3.421875 37.71875 1 
Q 33.40625 -1.421875 27.6875 -1.421875 
Q 18.265625 -1.421875 13.375 4.4375 
Q 8.5 10.296875 8.5 21.578125 
" id="BitstreamVeraSans-Roman-75"/>
      <path d="M 2.78125 -18.796875 
Q 2.78125 -18.21875 2.875 -18.015625 
L 17.578125 41.015625 
Q 18.015625 42.4375 19.15625 43.3125 
Q 20.3125 44.1875 21.78125 44.1875 
Q 23.046875 44.1875 23.921875 43.421875 
Q 24.8125 42.671875 24.8125 41.40625 
Q 24.8125 41.109375 24.78125 40.9375 
Q 24.75 40.765625 24.703125 40.578125 
L 18.796875 17.1875 
Q 17.828125 13.03125 17.828125 10.015625 
Q 17.828125 6.296875 19.578125 3.90625 
Q 21.34375 1.515625 24.90625 1.515625 
Q 32.171875 1.515625 37.703125 10.59375 
Q 37.75 10.6875 37.765625 10.734375 
Q 37.796875 10.796875 37.796875 10.890625 
L 45.015625 39.890625 
Q 45.359375 41.21875 46.578125 42.15625 
Q 47.796875 43.109375 49.21875 43.109375 
Q 50.390625 43.109375 51.296875 42.328125 
Q 52.203125 41.546875 52.203125 40.28125 
Q 52.203125 39.703125 52.09375 39.5 
L 44.921875 10.6875 
Q 44.1875 7.859375 44.1875 5.8125 
Q 44.1875 1.515625 47.125 1.515625 
Q 50.25 1.515625 51.828125 5.375 
Q 53.421875 9.234375 54.59375 14.703125 
Q 54.78125 15.28125 55.421875 15.28125 
L 56.59375 15.28125 
Q 56.984375 15.28125 57.25 14.96875 
Q 57.515625 14.65625 57.515625 14.3125 
Q 55.765625 7.328125 53.6875 3.09375 
Q 51.609375 -1.125 46.921875 -1.125 
Q 43.609375 -1.125 41.046875 0.78125 
Q 38.484375 2.6875 37.703125 5.90625 
Q 35.203125 2.78125 31.859375 0.828125 
Q 28.515625 -1.125 24.8125 -1.125 
Q 18.5625 -1.125 14.984375 1.8125 
L 9.90625 -18.40625 
Q 9.625 -19.828125 8.453125 -20.703125 
Q 7.28125 -21.578125 5.8125 -21.578125 
Q 4.59375 -21.578125 3.6875 -20.8125 
Q 2.78125 -20.0625 2.78125 -18.796875 
" id="Cmmi10-b9"/>
      <path d="M 54.890625 33.015625 
L 54.890625 0 
L 45.90625 0 
L 45.90625 32.71875 
Q 45.90625 40.484375 42.875 44.328125 
Q 39.84375 48.1875 33.796875 48.1875 
Q 26.515625 48.1875 22.3125 43.546875 
Q 18.109375 38.921875 18.109375 30.90625 
L 18.109375 0 
L 9.078125 0 
L 9.078125 54.6875 
L 18.109375 54.6875 
L 18.109375 46.1875 
Q 21.34375 51.125 25.703125 53.5625 
Q 30.078125 56 35.796875 56 
Q 45.21875 56 50.046875 50.171875 
Q 54.890625 44.34375 54.890625 33.015625 
" id="BitstreamVeraSans-Roman-6e"/>
      <path d="M 19.671875 64.796875 
L 19.671875 8.109375 
L 31.59375 8.109375 
Q 46.6875 8.109375 53.6875 14.9375 
Q 60.6875 21.78125 60.6875 36.53125 
Q 60.6875 51.171875 53.6875 57.984375 
Q 46.6875 64.796875 31.59375 64.796875 
z
M 9.8125 72.90625 
L 30.078125 72.90625 
Q 51.265625 72.90625 61.171875 64.09375 
Q 71.09375 55.28125 71.09375 36.53125 
Q 71.09375 17.671875 61.125 8.828125 
Q 51.171875 0 30.078125 0 
L 9.8125 0 
z
" id="BitstreamVeraSans-Roman-44"/>
      <path d="M 4.890625 31.390625 
L 31.203125 31.390625 
L 31.203125 23.390625 
L 4.890625 23.390625 
z
" id="BitstreamVeraSans-Roman-2d"/>
      <path d="M 9.421875 54.6875 
L 18.40625 54.6875 
L 18.40625 0 
L 9.421875 0 
z
M 9.421875 75.984375 
L 18.40625 75.984375 
L 18.40625 64.59375 
L 9.421875 64.59375 
z
" id="BitstreamVeraSans-Roman-69"/>
      <path d="M 54.890625 54.6875 
L 35.109375 28.078125 
L 55.90625 0 
L 45.3125 0 
L 29.390625 21.484375 
L 13.484375 0 
L 2.875 0 
L 24.125 28.609375 
L 4.6875 54.6875 
L 15.28125 54.6875 
L 29.78125 35.203125 
L 44.28125 54.6875 
z
" id="BitstreamVeraSans-Roman-78"/>
      <path d="M 10.6875 12.40625 
L 21 12.40625 
L 21 0 
L 10.6875 0 
z
" id="BitstreamVeraSans-Roman-2e"/>
      <path d="M 9.421875 75.984375 
L 18.40625 75.984375 
L 18.40625 0 
L 9.421875 0 
z
" id="BitstreamVeraSans-Roman-6c"/>
      <path d="M 32.171875 -5.078125 
Q 28.375 -14.84375 24.75 -17.8125 
Q 21.140625 -20.796875 15.09375 -20.796875 
L 7.90625 -20.796875 
L 7.90625 -13.28125 
L 13.1875 -13.28125 
Q 16.890625 -13.28125 18.9375 -11.515625 
Q 21 -9.765625 23.484375 -3.21875 
L 25.09375 0.875 
L 2.984375 54.6875 
L 12.5 54.6875 
L 29.59375 11.921875 
L 46.6875 54.6875 
L 56.203125 54.6875 
z
" id="BitstreamVeraSans-Roman-79"/>
      <path d="M 10.59375 45.40625 
L 73.1875 45.40625 
L 73.1875 37.203125 
L 10.59375 37.203125 
z
M 10.59375 25.484375 
L 73.1875 25.484375 
L 73.1875 17.1875 
L 10.59375 17.1875 
z
" id="BitstreamVeraSans-Roman-3d"/>
      <path d="M 9.8125 72.90625 
L 51.703125 72.90625 
L 51.703125 64.59375 
L 19.671875 64.59375 
L 19.671875 43.109375 
L 48.578125 43.109375 
L 48.578125 34.8125 
L 19.671875 34.8125 
L 19.671875 0 
L 9.8125 0 
z
" id="BitstreamVeraSans-Roman-46"/>
      <path d="M -0.296875 72.90625 
L 61.375 72.90625 
L 61.375 64.59375 
L 35.5 64.59375 
L 35.5 0 
L 25.59375 0 
L 25.59375 64.59375 
L -0.296875 64.59375 
z
" id="BitstreamVeraSans-Roman-54"/>
      <path d="M 4.59375 1.3125 
Q 4.640625 1.5625 4.8125 2.1875 
Q 4.984375 2.828125 5.25 3.171875 
Q 5.515625 3.515625 6 3.515625 
Q 14.59375 3.515625 17.390625 4 
Q 20.0625 4.6875 20.609375 6.890625 
L 34.28125 61.8125 
Q 34.71875 63.03125 34.71875 64.015625 
Q 34.71875 64.796875 31.203125 64.796875 
L 25.390625 64.796875 
Q 18.703125 64.796875 15.0625 62.734375 
Q 11.421875 60.6875 9.71875 57.3125 
Q 8.015625 53.953125 5.328125 46.296875 
Q 4.984375 45.40625 4.296875 45.40625 
L 3.421875 45.40625 
Q 2.390625 45.40625 2.390625 46.6875 
L 9.515625 67.390625 
Q 9.71875 68.3125 10.5 68.3125 
L 69.578125 68.3125 
Q 70.609375 68.3125 70.609375 67 
L 67.28125 46.296875 
Q 67.28125 46 66.9375 45.703125 
Q 66.609375 45.40625 66.3125 45.40625 
L 65.375 45.40625 
Q 64.40625 45.40625 64.40625 46.6875 
Q 65.484375 53.765625 65.484375 56.6875 
Q 65.484375 60.203125 64.015625 62 
Q 62.546875 63.8125 60.203125 64.296875 
Q 57.859375 64.796875 54.109375 64.796875 
L 48.1875 64.796875 
Q 45.515625 64.796875 44.578125 64.296875 
Q 43.65625 63.8125 43.015625 61.375 
L 29.296875 6.5 
Q 29.25 6.296875 29.21875 6.09375 
Q 29.203125 5.90625 29.109375 5.609375 
Q 29.109375 4.34375 30.609375 4 
Q 33.203125 3.515625 41.703125 3.515625 
Q 42.671875 3.515625 42.671875 2.203125 
Q 42.328125 0.78125 42.125 0.390625 
Q 41.9375 0 41.015625 0 
L 5.609375 0 
Q 4.59375 0 4.59375 1.3125 
" id="Cmmi10-54"/>
      <path d="M 56.203125 29.59375 
L 56.203125 25.203125 
L 14.890625 25.203125 
Q 15.484375 15.921875 20.484375 11.0625 
Q 25.484375 6.203125 34.421875 6.203125 
Q 39.59375 6.203125 44.453125 7.46875 
Q 49.3125 8.734375 54.109375 11.28125 
L 54.109375 2.78125 
Q 49.265625 0.734375 44.1875 -0.34375 
Q 39.109375 -1.421875 33.890625 -1.421875 
Q 20.796875 -1.421875 13.15625 6.1875 
Q 5.515625 13.8125 5.515625 26.8125 
Q 5.515625 40.234375 12.765625 48.109375 
Q 20.015625 56 32.328125 56 
Q 43.359375 56 49.78125 48.890625 
Q 56.203125 41.796875 56.203125 29.59375 
M 47.21875 32.234375 
Q 47.125 39.59375 43.09375 43.984375 
Q 39.0625 48.390625 32.421875 48.390625 
Q 24.90625 48.390625 20.390625 44.140625 
Q 15.875 39.890625 15.1875 32.171875 
z
" id="BitstreamVeraSans-Roman-65"/>
     </defs>
     <g transform="translate(42.669375 333.66)rotate(-90.0)scale(0.12 -0.12)">
      <use transform="translate(0.0 0.015625)" xlink:href="#Cmr10-a2"/>
      <use transform="translate(83.30078125 0.015625)" xlink:href="#BitstreamVeraSans-Roman-46"/>
      <use transform="translate(140.8203125 0.015625)" xlink:href="#BitstreamVeraSans-Roman-6c"/>
      <use transform="translate(168.603515625 0.015625)" xlink:href="#BitstreamVeraSans-Roman-75"/>
      <use transform="translate(231.982421875 0.015625)" xlink:href="#BitstreamVeraSans-Roman-78"/>
      <use transform="translate(291.162109375 0.015625)" xlink:href="#BitstreamVeraSans-Roman-20"/>
      <use transform="translate(322.94921875 0.015625)" xlink:href="#BitstreamVeraSans-Roman-44"/>
      <use transform="translate(399.951171875 0.015625)" xlink:href="#BitstreamVeraSans-Roman-65"/>
      <use transform="translate(461.474609375 0.015625)" xlink:href="#BitstreamVeraSans-Roman-6e"/>
      <use transform="translate(524.853515625 0.015625)" xlink:href="#BitstreamVeraSans-Roman-73"/>
      <use transform="translate(576.953125 0.015625)" xlink:href="#BitstreamVeraSans-Roman-69"/>
      <use transform="translate(604.736328125 0.015625)" xlink:href="#BitstreamVeraSans-Roman-74"/>
      <use transform="translate(643.9453125 0.015625)" xlink:href="#BitstreamVeraSans-Roman-79"/>
      <use transform="translate(703.125 0.015625)" xlink:href="#BitstreamVeraSans-Roman-20"/>
      <use transform="translate(734.912109375 0.015625)" xlink:href="#BitstreamVeraSans-Roman-2d"/>
      <use transform="translate(770.99609375 0.015625)" xlink:href="#BitstreamVeraSans-Roman-20"/>
      <use transform="translate(802.783203125 0.015625)" xlink:href="#BitstreamVeraSans-Roman-6e"/>
      <use transform="translate(866.162109375 0.015625)" xlink:href="#BitstreamVeraSans-Roman-54"/>
      <use transform="translate(927.24609375 0.015625)" xlink:href="#BitstreamVeraSans-Roman-20"/>
      <use transform="translate(959.033203125 0.015625)" xlink:href="#BitstreamVeraSans-Roman-20"/>
      <use transform="translate(990.8203125 0.015625)" xlink:href="#BitstreamVeraSans-Roman-20"/>
      <use transform="translate(1022.607421875 0.015625)" xlink:href="#BitstreamVeraSans-Roman-20"/>
      <use transform="translate(1054.39453125 0.015625)" xlink:href="#BitstreamVeraSans-Roman-20"/>
      <use transform="translate(1086.181640625 0.015625)" xlink:href="#BitstreamVeraSans-Roman-30"/>
      <use transform="translate(1149.8046875 0.015625)" xlink:href="#BitstreamVeraSans-Roman-2e"/>
      <use transform="translate(1181.591796875 0.015625)" xlink:href="#BitstreamVeraSans-Roman-30"/>
      <use transform="translate(1245.21484375 0.015625)" xlink:href="#BitstreamVeraSans-Roman-3d"/>
      <use transform="translate(1329.00390625 0.015625)" xlink:href="#BitstreamVeraSans-Roman-2d"/>
      <use transform="translate(1365.087890625 0.015625)" xlink:href="#BitstreamVeraSans-Roman-30"/>
      <use transform="translate(1428.7109375 0.015625)" xlink:href="#BitstreamVeraSans-Roman-2e"/>
      <use transform="translate(1460.498046875 0.015625)" xlink:href="#BitstreamVeraSans-Roman-30"/>
      <use transform="translate(1524.12109375 0.015625)" xlink:href="#BitstreamVeraSans-Roman-31"/>
      <use transform="translate(1587.744140625 0.015625)" xlink:href="#BitstreamVeraSans-Roman-35"/>
      <use transform="translate(1651.3671875 0.015625)" xlink:href="#BitstreamVeraSans-Roman-32"/>
      <use transform="translate(1714.990234375 0.015625)" xlink:href="#BitstreamVeraSans-Roman-35"/>
      <use transform="translate(1778.50390625 0.015625)" xlink:href="#BitstreamVeraSans-Roman-37"/>
      <use transform="translate(1842.126953125 0.015625)" xlink:href="#Cmmi10-b9"/>
      <use transform="translate(1902.33203125 0.015625)" xlink:href="#Cmmi10-54"/>
     </g>
    </g>
   </g>
  </g>
 </g>
 <defs>
  <clipPath id="p4285695eac">
   <rect height="345.6" width="446.4" x="72.0" y="43.2"/>
  </clipPath>
 </defs>
</svg>
