<?xml version="1.0" encoding="utf-8" standalone="no"?>
<!DOCTYPE svg PUBLIC "-//W3C//DTD SVG 1.1//EN"
  "http://www.w3.org/Graphics/SVG/1.1/DTD/svg11.dtd">
<!-- Created with matplotlib (http://matplotlib.org/) -->
<svg height="432pt" version="1.1" viewBox="0 0 864 432" width="864pt" xmlns="http://www.w3.org/2000/svg" xmlns:xlink="http://www.w3.org/1999/xlink">
 <defs>
  <style type="text/css">
*{stroke-linecap:butt;stroke-linejoin:round;}
  </style>
 </defs>
 <g id="figure_1">
  <g id="patch_1">
   <path d="
M0 432
L864 432
L864 0
L0 0
z
" style="fill:#ffffff;"/>
  </g>
  <g id="axes_1">
   <g id="patch_2">
    <path d="
M108 388.8
L777.6 388.8
L777.6 43.2
L108 43.2
z
" style="fill:#ffffff;"/>
   </g>
   <g id="line2d_1">
    <path clip-path="url(#pad36b945f0)" d="
M511.334 127.68
L511.35 124.213
L511.35 124.213
L511.35 124.213
L511.413 158.908
L511.46 145.03
L511.492 131.152
L511.492 131.152
L511.492 131.152
L511.508 155.439
L511.571 138.091
L511.571 138.091
L511.587 127.68
L511.602 138.091
L511.602 138.091
L511.665 151.973
L511.665 151.973
L511.665 151.973
L511.681 134.622
L511.697 148.5
L511.697 148.5
L511.713 162.381
L511.776 151.973
L511.776 151.973
L511.886 127.68
L511.902 151.973
L511.996 131.152
L512.012 131.152
L512.106 138.091
L512.217 117.271
L512.232 134.622
L512.295 127.68
L512.295 127.68
L512.311 110.332
L512.406 117.271
L512.484 131.152
L512.516 124.213
L512.532 124.213
L512.563 117.271
L512.595 120.744
L512.595 120.744
L512.611 131.152
L512.611 131.152
L512.611 131.152
L512.642 99.9236
L512.737 106.863
L512.752 141.561
L512.768 127.68
L512.768 127.68
L512.784 103.393
L512.8 117.271
L512.8 117.271
L512.894 134.622
L513.02 106.863
L513.052 127.68
L513.13 120.744
L513.146 120.744
L513.209 113.802
L513.225 117.271
L513.335 148.5
L513.367 145.03
L513.382 155.439
L513.382 155.439
L513.382 155.439
L513.398 127.68
L513.493 131.152
L513.572 145.03
L513.603 134.622
L513.635 124.213
L513.682 131.152
L513.698 165.851
L513.761 131.152
L513.761 131.152
L513.776 124.213
L513.776 124.213
L513.776 124.213
L513.808 145.03
L513.855 134.622
L513.855 134.622
L513.871 120.744
L513.871 120.744
L513.871 120.744
L513.997 155.439
L514.091 131.152
L514.107 138.091
L514.139 145.03
L514.139 145.03
L514.139 145.03
L514.154 127.68
L514.186 141.561
L514.186 141.561
L514.202 148.5
L514.202 148.5
L514.202 148.5
L514.217 134.622
L514.217 134.622
L514.217 134.622
L514.233 158.908
L514.328 145.03
L514.359 138.091
L514.391 145.03
L514.422 68.6947
L514.438 124.213
L514.438 124.213
L514.548 151.973
L514.564 127.68
L514.659 148.5
L514.769 117.271
L514.785 127.68
L514.863 145.03
L514.879 138.091
L514.895 120.744
L514.958 131.152
L514.958 131.152
L514.989 162.381
L515.005 138.091
L515.005 138.091
L515.021 124.213
L515.115 131.152
L515.131 131.152
L515.163 127.68
L515.163 127.68
L515.163 127.68
L515.178 138.091
L515.194 127.68
L515.194 127.68
L515.21 124.213
L515.21 124.213
L515.21 124.213
L515.273 138.091
L515.273 138.091
L515.273 138.091
L515.336 117.271
L515.352 134.622
L515.352 134.622
L515.367 145.03
L515.367 145.03
L515.367 145.03
L515.462 124.213
L515.478 131.152
L515.493 134.622
L515.509 131.152
L515.509 131.152
L515.525 120.744
L515.525 120.744
L515.525 120.744
L515.541 134.622
L515.557 124.213
L515.557 124.213
L515.572 106.863
L515.572 106.863
L515.572 106.863
L515.62 151.973
L515.683 131.152
L515.714 131.152
L515.746 151.973
L515.761 134.622
L515.761 134.622
L515.793 124.213
L515.84 131.152
L515.84 131.152
L515.856 138.091
L515.856 138.091
L515.856 138.091
L515.998 110.332
L516.076 141.561
L516.108 127.68
L516.155 120.744
L516.171 124.213
L516.171 124.213
L516.202 151.973
L516.265 131.152
L516.281 113.802
L516.376 117.271
L516.391 127.68
L516.391 127.68
L516.391 127.68
L516.407 106.863
L516.439 113.802
L516.439 113.802
L516.454 134.622
L516.549 113.802
L516.565 113.802
L516.581 117.271
L516.581 117.271
L516.581 117.271
L516.596 106.863
L516.612 113.802
L516.612 113.802
L516.738 138.091
L516.833 103.393
L516.864 124.213
L516.88 127.68
L516.88 127.68
L516.88 127.68
L516.911 103.393
L516.99 127.68
L517.006 138.091
L517.006 138.091
L517.006 138.091
L517.116 106.863
L517.132 117.271
L517.289 141.561
L517.305 120.744
L517.337 124.213
L517.337 124.213
L517.352 145.03
L517.368 127.68
L517.368 127.68
L517.384 110.332
L517.384 110.332
L517.384 110.332
L517.431 131.152
L517.494 110.332
L517.51 103.393
L517.51 103.393
L517.51 103.393
L517.636 120.744
L517.652 106.863
L517.652 106.863
L517.652 106.863
L517.668 134.622
L517.715 113.802
L517.715 113.802
L517.731 103.393
L517.731 103.393
L517.731 103.393
L517.762 120.744
L517.841 117.271
L517.857 113.802
L517.857 113.802
L517.857 113.802
L517.904 131.152
L517.92 124.213
L517.92 124.213
L517.951 103.393
L517.967 106.863
L517.967 106.863
L518.077 134.622
L518.187 106.863
L518.219 127.68
L518.282 117.271
L518.298 103.393
L518.313 113.802
L518.313 113.802
L518.439 134.622
L518.487 103.393
L518.566 110.332
L518.597 124.213
L518.613 113.802
L518.613 113.802
L518.707 99.9236
L518.739 103.393
L518.755 103.393
L518.786 99.9236
L518.786 99.9236
L518.786 99.9236
L518.802 106.863
L518.896 103.393
L519.022 79.1066
L519.133 384.45
L519.148 377.511" style="fill:none;stroke:#556b2f;stroke-linecap:square;"/>
   </g>
   <g id="patch_3">
    <path d="
M108 43.2
L777.6 43.2" style="fill:none;stroke:#000000;stroke-linecap:square;stroke-linejoin:miter;"/>
   </g>
   <g id="patch_4">
    <path d="
M777.6 388.8
L777.6 43.2" style="fill:none;stroke:#000000;stroke-linecap:square;stroke-linejoin:miter;"/>
   </g>
   <g id="patch_5">
    <path d="
M108 388.8
L777.6 388.8" style="fill:none;stroke:#000000;stroke-linecap:square;stroke-linejoin:miter;"/>
   </g>
   <g id="patch_6">
    <path d="
M108 388.8
L108 43.2" style="fill:none;stroke:#000000;stroke-linecap:square;stroke-linejoin:miter;"/>
   </g>
   <g id="matplotlib.axis_1">
    <g id="xtick_1">
     <g id="line2d_2">
      <path clip-path="url(#pad36b945f0)" d="
M108 388.8
L108 43.2" style="fill:none;stroke:#000000;stroke-dasharray:1.000000,3.000000;stroke-dashoffset:0.0;stroke-width:0.5;"/>
     </g>
     <g id="line2d_3">
      <defs>
       <path d="
M0 0
L0 -4" id="mc7db9fdffb" style="stroke:#000000;stroke-width:0.5;"/>
      </defs>
      <g>
       <use style="stroke:#000000;stroke-width:0.5;" x="108.0" xlink:href="#mc7db9fdffb" y="388.8"/>
      </g>
     </g>
     <g id="line2d_4">
      <defs>
       <path d="
M0 0
L0 4" id="m5a7d422ac3" style="stroke:#000000;stroke-width:0.5;"/>
      </defs>
      <g>
       <use style="stroke:#000000;stroke-width:0.5;" x="108.0" xlink:href="#m5a7d422ac3" y="43.2"/>
      </g>
     </g>
     <g id="text_1">
      <!-- 0 -->
      <defs>
       <path d="
M31.7812 66.4062
Q24.1719 66.4062 20.3281 58.9062
Q16.5 51.4219 16.5 36.375
Q16.5 21.3906 20.3281 13.8906
Q24.1719 6.39062 31.7812 6.39062
Q39.4531 6.39062 43.2812 13.8906
Q47.125 21.3906 47.125 36.375
Q47.125 51.4219 43.2812 58.9062
Q39.4531 66.4062 31.7812 66.4062
M31.7812 74.2188
Q44.0469 74.2188 50.5156 64.5156
Q56.9844 54.8281 56.9844 36.375
Q56.9844 17.9688 50.5156 8.26562
Q44.0469 -1.42188 31.7812 -1.42188
Q19.5312 -1.42188 13.0625 8.26562
Q6.59375 17.9688 6.59375 36.375
Q6.59375 54.8281 13.0625 64.5156
Q19.5312 74.2188 31.7812 74.2188" id="DejaVuSans-30"/>
      </defs>
      <g transform="translate(104.9765625 401.918125)scale(0.12 -0.12)">
       <use xlink:href="#DejaVuSans-30"/>
      </g>
     </g>
    </g>
    <g id="xtick_2">
     <g id="line2d_5">
      <path clip-path="url(#pad36b945f0)" d="
M274.705 388.8
L274.705 43.2" style="fill:none;stroke:#000000;stroke-dasharray:1.000000,3.000000;stroke-dashoffset:0.0;stroke-width:0.5;"/>
     </g>
     <g id="line2d_6">
      <g>
       <use style="stroke:#000000;stroke-width:0.5;" x="274.705394191" xlink:href="#mc7db9fdffb" y="388.8"/>
      </g>
     </g>
     <g id="line2d_7">
      <g>
       <use style="stroke:#000000;stroke-width:0.5;" x="274.705394191" xlink:href="#m5a7d422ac3" y="43.2"/>
      </g>
     </g>
     <g id="text_2">
      <!-- 6 -->
      <defs>
       <path d="
M33.0156 40.375
Q26.375 40.375 22.4844 35.8281
Q18.6094 31.2969 18.6094 23.3906
Q18.6094 15.5312 22.4844 10.9531
Q26.375 6.39062 33.0156 6.39062
Q39.6562 6.39062 43.5312 10.9531
Q47.4062 15.5312 47.4062 23.3906
Q47.4062 31.2969 43.5312 35.8281
Q39.6562 40.375 33.0156 40.375
M52.5938 71.2969
L52.5938 62.3125
Q48.875 64.0625 45.0938 64.9844
Q41.3125 65.9219 37.5938 65.9219
Q27.8281 65.9219 22.6719 59.3281
Q17.5312 52.7344 16.7969 39.4062
Q19.6719 43.6562 24.0156 45.9219
Q28.375 48.1875 33.5938 48.1875
Q44.5781 48.1875 50.9531 41.5156
Q57.3281 34.8594 57.3281 23.3906
Q57.3281 12.1562 50.6875 5.35938
Q44.0469 -1.42188 33.0156 -1.42188
Q20.3594 -1.42188 13.6719 8.26562
Q6.98438 17.9688 6.98438 36.375
Q6.98438 53.6562 15.1875 63.9375
Q23.3906 74.2188 37.2031 74.2188
Q40.9219 74.2188 44.7031 73.4844
Q48.4844 72.75 52.5938 71.2969" id="DejaVuSans-36"/>
      </defs>
      <g transform="translate(271.684769191 401.918125)scale(0.12 -0.12)">
       <use xlink:href="#DejaVuSans-36"/>
      </g>
     </g>
    </g>
    <g id="xtick_3">
     <g id="line2d_8">
      <path clip-path="url(#pad36b945f0)" d="
M441.411 388.8
L441.411 43.2" style="fill:none;stroke:#000000;stroke-dasharray:1.000000,3.000000;stroke-dashoffset:0.0;stroke-width:0.5;"/>
     </g>
     <g id="line2d_9">
      <g>
       <use style="stroke:#000000;stroke-width:0.5;" x="441.410788382" xlink:href="#mc7db9fdffb" y="388.8"/>
      </g>
     </g>
     <g id="line2d_10">
      <g>
       <use style="stroke:#000000;stroke-width:0.5;" x="441.410788382" xlink:href="#m5a7d422ac3" y="43.2"/>
      </g>
     </g>
     <g id="text_3">
      <!-- 12 -->
      <defs>
       <path d="
M19.1875 8.29688
L53.6094 8.29688
L53.6094 0
L7.32812 0
L7.32812 8.29688
Q12.9375 14.1094 22.625 23.8906
Q32.3281 33.6875 34.8125 36.5312
Q39.5469 41.8438 41.4219 45.5312
Q43.3125 49.2188 43.3125 52.7812
Q43.3125 58.5938 39.2344 62.25
Q35.1562 65.9219 28.6094 65.9219
Q23.9688 65.9219 18.8125 64.3125
Q13.6719 62.7031 7.8125 59.4219
L7.8125 69.3906
Q13.7656 71.7812 18.9375 73
Q24.125 74.2188 28.4219 74.2188
Q39.75 74.2188 46.4844 68.5469
Q53.2188 62.8906 53.2188 53.4219
Q53.2188 48.9219 51.5312 44.8906
Q49.8594 40.875 45.4062 35.4062
Q44.1875 33.9844 37.6406 27.2188
Q31.1094 20.4531 19.1875 8.29688" id="DejaVuSans-32"/>
       <path d="
M12.4062 8.29688
L28.5156 8.29688
L28.5156 63.9219
L10.9844 60.4062
L10.9844 69.3906
L28.4219 72.9062
L38.2812 72.9062
L38.2812 8.29688
L54.3906 8.29688
L54.3906 0
L12.4062 0
z
" id="DejaVuSans-31"/>
      </defs>
      <g transform="translate(435.035788382 401.918125)scale(0.12 -0.12)">
       <use xlink:href="#DejaVuSans-31"/>
       <use x="63.623046875" xlink:href="#DejaVuSans-32"/>
      </g>
     </g>
    </g>
    <g id="xtick_4">
     <g id="line2d_11">
      <path clip-path="url(#pad36b945f0)" d="
M608.116 388.8
L608.116 43.2" style="fill:none;stroke:#000000;stroke-dasharray:1.000000,3.000000;stroke-dashoffset:0.0;stroke-width:0.5;"/>
     </g>
     <g id="line2d_12">
      <g>
       <use style="stroke:#000000;stroke-width:0.5;" x="608.116182573" xlink:href="#mc7db9fdffb" y="388.8"/>
      </g>
     </g>
     <g id="line2d_13">
      <g>
       <use style="stroke:#000000;stroke-width:0.5;" x="608.116182573" xlink:href="#m5a7d422ac3" y="43.2"/>
      </g>
     </g>
     <g id="text_4">
      <!-- 18 -->
      <defs>
       <path d="
M31.7812 34.625
Q24.75 34.625 20.7188 30.8594
Q16.7031 27.0938 16.7031 20.5156
Q16.7031 13.9219 20.7188 10.1562
Q24.75 6.39062 31.7812 6.39062
Q38.8125 6.39062 42.8594 10.1719
Q46.9219 13.9688 46.9219 20.5156
Q46.9219 27.0938 42.8906 30.8594
Q38.875 34.625 31.7812 34.625
M21.9219 38.8125
Q15.5781 40.375 12.0312 44.7188
Q8.5 49.0781 8.5 55.3281
Q8.5 64.0625 14.7188 69.1406
Q20.9531 74.2188 31.7812 74.2188
Q42.6719 74.2188 48.875 69.1406
Q55.0781 64.0625 55.0781 55.3281
Q55.0781 49.0781 51.5312 44.7188
Q48 40.375 41.7031 38.8125
Q48.8281 37.1562 52.7969 32.3125
Q56.7812 27.4844 56.7812 20.5156
Q56.7812 9.90625 50.3125 4.23438
Q43.8438 -1.42188 31.7812 -1.42188
Q19.7344 -1.42188 13.25 4.23438
Q6.78125 9.90625 6.78125 20.5156
Q6.78125 27.4844 10.7812 32.3125
Q14.7969 37.1562 21.9219 38.8125
M18.3125 54.3906
Q18.3125 48.7344 21.8438 45.5625
Q25.3906 42.3906 31.7812 42.3906
Q38.1406 42.3906 41.7188 45.5625
Q45.3125 48.7344 45.3125 54.3906
Q45.3125 60.0625 41.7188 63.2344
Q38.1406 66.4062 31.7812 66.4062
Q25.3906 66.4062 21.8438 63.2344
Q18.3125 60.0625 18.3125 54.3906" id="DejaVuSans-38"/>
      </defs>
      <g transform="translate(601.550870073 401.918125)scale(0.12 -0.12)">
       <use xlink:href="#DejaVuSans-31"/>
       <use x="63.623046875" xlink:href="#DejaVuSans-38"/>
      </g>
     </g>
    </g>
    <g id="xtick_5">
     <g id="line2d_14">
      <path clip-path="url(#pad36b945f0)" d="
M774.822 388.8
L774.822 43.2" style="fill:none;stroke:#000000;stroke-dasharray:1.000000,3.000000;stroke-dashoffset:0.0;stroke-width:0.5;"/>
     </g>
     <g id="line2d_15">
      <g>
       <use style="stroke:#000000;stroke-width:0.5;" x="774.821576763" xlink:href="#mc7db9fdffb" y="388.8"/>
      </g>
     </g>
     <g id="line2d_16">
      <g>
       <use style="stroke:#000000;stroke-width:0.5;" x="774.821576763" xlink:href="#m5a7d422ac3" y="43.2"/>
      </g>
     </g>
     <g id="text_5">
      <!-- 24 -->
      <defs>
       <path d="
M37.7969 64.3125
L12.8906 25.3906
L37.7969 25.3906
z

M35.2031 72.9062
L47.6094 72.9062
L47.6094 25.3906
L58.0156 25.3906
L58.0156 17.1875
L47.6094 17.1875
L47.6094 0
L37.7969 0
L37.7969 17.1875
L4.89062 17.1875
L4.89062 26.7031
z
" id="DejaVuSans-34"/>
      </defs>
      <g transform="translate(767.962826763 401.918125)scale(0.12 -0.12)">
       <use xlink:href="#DejaVuSans-32"/>
       <use x="63.623046875" xlink:href="#DejaVuSans-34"/>
      </g>
     </g>
    </g>
    <g id="text_6">
     <!-- Time  updated - 2017-08-28T14:48:40.286898Z UTC -->
     <defs>
      <path d="
M9.42188 54.6875
L18.4062 54.6875
L18.4062 0
L9.42188 0
z

M9.42188 75.9844
L18.4062 75.9844
L18.4062 64.5938
L9.42188 64.5938
z
" id="DejaVuSans-69"/>
      <path d="
M8.5 21.5781
L8.5 54.6875
L17.4844 54.6875
L17.4844 21.9219
Q17.4844 14.1562 20.5 10.2656
Q23.5312 6.39062 29.5938 6.39062
Q36.8594 6.39062 41.0781 11.0312
Q45.3125 15.6719 45.3125 23.6875
L45.3125 54.6875
L54.2969 54.6875
L54.2969 0
L45.3125 0
L45.3125 8.40625
Q42.0469 3.42188 37.7188 1
Q33.4062 -1.42188 27.6875 -1.42188
Q18.2656 -1.42188 13.375 4.4375
Q8.5 10.2969 8.5 21.5781
M31.1094 56
z
" id="DejaVuSans-75"/>
      <path d="
M11.7188 12.4062
L22.0156 12.4062
L22.0156 0
L11.7188 0
z

M11.7188 51.7031
L22.0156 51.7031
L22.0156 39.3125
L11.7188 39.3125
z
" id="DejaVuSans-3a"/>
      <path d="
M34.2812 27.4844
Q23.3906 27.4844 19.1875 25
Q14.9844 22.5156 14.9844 16.5
Q14.9844 11.7188 18.1406 8.90625
Q21.2969 6.10938 26.7031 6.10938
Q34.1875 6.10938 38.7031 11.4062
Q43.2188 16.7031 43.2188 25.4844
L43.2188 27.4844
z

M52.2031 31.2031
L52.2031 0
L43.2188 0
L43.2188 8.29688
Q40.1406 3.32812 35.5469 0.953125
Q30.9531 -1.42188 24.3125 -1.42188
Q15.9219 -1.42188 10.9531 3.29688
Q6 8.01562 6 15.9219
Q6 25.1406 12.1719 29.8281
Q18.3594 34.5156 30.6094 34.5156
L43.2188 34.5156
L43.2188 35.4062
Q43.2188 41.6094 39.1406 45
Q35.0625 48.3906 27.6875 48.3906
Q23 48.3906 18.5469 47.2656
Q14.1094 46.1406 10.0156 43.8906
L10.0156 52.2031
Q14.9375 54.1094 19.5781 55.0469
Q24.2188 56 28.6094 56
Q40.4844 56 46.3438 49.8438
Q52.2031 43.7031 52.2031 31.2031" id="DejaVuSans-61"/>
      <path d="
M10.6875 12.4062
L21 12.4062
L21 0
L10.6875 0
z
" id="DejaVuSans-2e"/>
      <path id="DejaVuSans-20"/>
      <path d="
M5.60938 72.9062
L62.8906 72.9062
L62.8906 65.375
L16.7969 8.29688
L64.0156 8.29688
L64.0156 0
L4.5 0
L4.5 7.51562
L50.5938 64.5938
L5.60938 64.5938
z
" id="DejaVuSans-5a"/>
      <path d="
M18.3125 70.2188
L18.3125 54.6875
L36.8125 54.6875
L36.8125 47.7031
L18.3125 47.7031
L18.3125 18.0156
Q18.3125 11.3281 20.1406 9.42188
Q21.9688 7.51562 27.5938 7.51562
L36.8125 7.51562
L36.8125 0
L27.5938 0
Q17.1875 0 13.2344 3.875
Q9.28125 7.76562 9.28125 18.0156
L9.28125 47.7031
L2.6875 47.7031
L2.6875 54.6875
L9.28125 54.6875
L9.28125 70.2188
z
" id="DejaVuSans-74"/>
      <path d="
M10.9844 1.51562
L10.9844 10.5
Q14.7031 8.73438 18.5 7.8125
Q22.3125 6.89062 25.9844 6.89062
Q35.75 6.89062 40.8906 13.4531
Q46.0469 20.0156 46.7812 33.4062
Q43.9531 29.2031 39.5938 26.9531
Q35.25 24.7031 29.9844 24.7031
Q19.0469 24.7031 12.6719 31.3125
Q6.29688 37.9375 6.29688 49.4219
Q6.29688 60.6406 12.9375 67.4219
Q19.5781 74.2188 30.6094 74.2188
Q43.2656 74.2188 49.9219 64.5156
Q56.5938 54.8281 56.5938 36.375
Q56.5938 19.1406 48.4062 8.85938
Q40.2344 -1.42188 26.4219 -1.42188
Q22.7031 -1.42188 18.8906 -0.6875
Q15.0938 0.046875 10.9844 1.51562
M30.6094 32.4219
Q37.25 32.4219 41.125 36.9531
Q45.0156 41.5 45.0156 49.4219
Q45.0156 57.2812 41.125 61.8438
Q37.25 66.4062 30.6094 66.4062
Q23.9688 66.4062 20.0938 61.8438
Q16.2188 57.2812 16.2188 49.4219
Q16.2188 41.5 20.0938 36.9531
Q23.9688 32.4219 30.6094 32.4219" id="DejaVuSans-39"/>
      <path d="
M18.1094 8.20312
L18.1094 -20.7969
L9.07812 -20.7969
L9.07812 54.6875
L18.1094 54.6875
L18.1094 46.3906
Q20.9531 51.2656 25.2656 53.625
Q29.5938 56 35.5938 56
Q45.5625 56 51.7812 48.0938
Q58.0156 40.1875 58.0156 27.2969
Q58.0156 14.4062 51.7812 6.48438
Q45.5625 -1.42188 35.5938 -1.42188
Q29.5938 -1.42188 25.2656 0.953125
Q20.9531 3.32812 18.1094 8.20312
M48.6875 27.2969
Q48.6875 37.2031 44.6094 42.8438
Q40.5312 48.4844 33.4062 48.4844
Q26.2656 48.4844 22.1875 42.8438
Q18.1094 37.2031 18.1094 27.2969
Q18.1094 17.3906 22.1875 11.75
Q26.2656 6.10938 33.4062 6.10938
Q40.5312 6.10938 44.6094 11.75
Q48.6875 17.3906 48.6875 27.2969" id="DejaVuSans-70"/>
      <path d="
M56.2031 29.5938
L56.2031 25.2031
L14.8906 25.2031
Q15.4844 15.9219 20.4844 11.0625
Q25.4844 6.20312 34.4219 6.20312
Q39.5938 6.20312 44.4531 7.46875
Q49.3125 8.73438 54.1094 11.2812
L54.1094 2.78125
Q49.2656 0.734375 44.1875 -0.34375
Q39.1094 -1.42188 33.8906 -1.42188
Q20.7969 -1.42188 13.1562 6.1875
Q5.51562 13.8125 5.51562 26.8125
Q5.51562 40.2344 12.7656 48.1094
Q20.0156 56 32.3281 56
Q43.3594 56 49.7812 48.8906
Q56.2031 41.7969 56.2031 29.5938
M47.2188 32.2344
Q47.125 39.5938 43.0938 43.9844
Q39.0625 48.3906 32.4219 48.3906
Q24.9062 48.3906 20.3906 44.1406
Q15.875 39.8906 15.1875 32.1719
z
" id="DejaVuSans-65"/>
      <path d="
M8.6875 72.9062
L18.6094 72.9062
L18.6094 28.6094
Q18.6094 16.8906 22.8438 11.7344
Q27.0938 6.59375 36.625 6.59375
Q46.0938 6.59375 50.3438 11.7344
Q54.5938 16.8906 54.5938 28.6094
L54.5938 72.9062
L64.5 72.9062
L64.5 27.3906
Q64.5 13.1406 57.4375 5.85938
Q50.3906 -1.42188 36.625 -1.42188
Q22.7969 -1.42188 15.7344 5.85938
Q8.6875 13.1406 8.6875 27.3906
z
" id="DejaVuSans-55"/>
      <path d="
M8.20312 72.9062
L55.0781 72.9062
L55.0781 68.7031
L28.6094 0
L18.3125 0
L43.2188 64.5938
L8.20312 64.5938
z
" id="DejaVuSans-37"/>
      <path d="
M45.4062 46.3906
L45.4062 75.9844
L54.3906 75.9844
L54.3906 0
L45.4062 0
L45.4062 8.20312
Q42.5781 3.32812 38.25 0.953125
Q33.9375 -1.42188 27.875 -1.42188
Q17.9688 -1.42188 11.7344 6.48438
Q5.51562 14.4062 5.51562 27.2969
Q5.51562 40.1875 11.7344 48.0938
Q17.9688 56 27.875 56
Q33.9375 56 38.25 53.625
Q42.5781 51.2656 45.4062 46.3906
M14.7969 27.2969
Q14.7969 17.3906 18.875 11.75
Q22.9531 6.10938 30.0781 6.10938
Q37.2031 6.10938 41.2969 11.75
Q45.4062 17.3906 45.4062 27.2969
Q45.4062 37.2031 41.2969 42.8438
Q37.2031 48.4844 30.0781 48.4844
Q22.9531 48.4844 18.875 42.8438
Q14.7969 37.2031 14.7969 27.2969" id="DejaVuSans-64"/>
      <path d="
M4.89062 31.3906
L31.2031 31.3906
L31.2031 23.3906
L4.89062 23.3906
z
" id="DejaVuSans-2d"/>
      <path d="
M64.4062 67.2812
L64.4062 56.8906
Q59.4219 61.5312 53.7812 63.8125
Q48.1406 66.1094 41.7969 66.1094
Q29.2969 66.1094 22.6562 58.4688
Q16.0156 50.8281 16.0156 36.375
Q16.0156 21.9688 22.6562 14.3281
Q29.2969 6.6875 41.7969 6.6875
Q48.1406 6.6875 53.7812 8.98438
Q59.4219 11.2812 64.4062 15.9219
L64.4062 5.60938
Q59.2344 2.09375 53.4375 0.328125
Q47.6562 -1.42188 41.2188 -1.42188
Q24.6562 -1.42188 15.125 8.70312
Q5.60938 18.8438 5.60938 36.375
Q5.60938 53.9531 15.125 64.0781
Q24.6562 74.2188 41.2188 74.2188
Q47.75 74.2188 53.5312 72.4844
Q59.3281 70.75 64.4062 67.2812" id="DejaVuSans-43"/>
      <path d="
M52 44.1875
Q55.375 50.25 60.0625 53.125
Q64.75 56 71.0938 56
Q79.6406 56 84.2812 50.0156
Q88.9219 44.0469 88.9219 33.0156
L88.9219 0
L79.8906 0
L79.8906 32.7188
Q79.8906 40.5781 77.0938 44.375
Q74.3125 48.1875 68.6094 48.1875
Q61.625 48.1875 57.5625 43.5469
Q53.5156 38.9219 53.5156 30.9062
L53.5156 0
L44.4844 0
L44.4844 32.7188
Q44.4844 40.625 41.7031 44.4062
Q38.9219 48.1875 33.1094 48.1875
Q26.2188 48.1875 22.1562 43.5312
Q18.1094 38.875 18.1094 30.9062
L18.1094 0
L9.07812 0
L9.07812 54.6875
L18.1094 54.6875
L18.1094 46.1875
Q21.1875 51.2188 25.4844 53.6094
Q29.7812 56 35.6875 56
Q41.6562 56 45.8281 52.9688
Q50 49.9531 52 44.1875" id="DejaVuSans-6d"/>
      <path d="
M-0.296875 72.9062
L61.375 72.9062
L61.375 64.5938
L35.5 64.5938
L35.5 0
L25.5938 0
L25.5938 64.5938
L-0.296875 64.5938
z
" id="DejaVuSans-54"/>
     </defs>
     <g transform="translate(285.4809375 418.531875)scale(0.12 -0.12)">
      <use xlink:href="#DejaVuSans-54"/>
      <use x="57.958984375" xlink:href="#DejaVuSans-69"/>
      <use x="85.7421875" xlink:href="#DejaVuSans-6d"/>
      <use x="183.154296875" xlink:href="#DejaVuSans-65"/>
      <use x="244.677734375" xlink:href="#DejaVuSans-20"/>
      <use x="276.46484375" xlink:href="#DejaVuSans-20"/>
      <use x="308.251953125" xlink:href="#DejaVuSans-75"/>
      <use x="371.630859375" xlink:href="#DejaVuSans-70"/>
      <use x="435.107421875" xlink:href="#DejaVuSans-64"/>
      <use x="498.583984375" xlink:href="#DejaVuSans-61"/>
      <use x="559.86328125" xlink:href="#DejaVuSans-74"/>
      <use x="599.072265625" xlink:href="#DejaVuSans-65"/>
      <use x="660.595703125" xlink:href="#DejaVuSans-64"/>
      <use x="724.072265625" xlink:href="#DejaVuSans-20"/>
      <use x="755.859375" xlink:href="#DejaVuSans-2d"/>
      <use x="791.943359375" xlink:href="#DejaVuSans-20"/>
      <use x="823.73046875" xlink:href="#DejaVuSans-32"/>
      <use x="887.353515625" xlink:href="#DejaVuSans-30"/>
      <use x="950.9765625" xlink:href="#DejaVuSans-31"/>
      <use x="1014.599609375" xlink:href="#DejaVuSans-37"/>
      <use x="1078.22265625" xlink:href="#DejaVuSans-2d"/>
      <use x="1114.306640625" xlink:href="#DejaVuSans-30"/>
      <use x="1177.9296875" xlink:href="#DejaVuSans-38"/>
      <use x="1241.552734375" xlink:href="#DejaVuSans-2d"/>
      <use x="1277.63671875" xlink:href="#DejaVuSans-32"/>
      <use x="1341.259765625" xlink:href="#DejaVuSans-38"/>
      <use x="1404.8828125" xlink:href="#DejaVuSans-54"/>
      <use x="1465.966796875" xlink:href="#DejaVuSans-31"/>
      <use x="1529.58984375" xlink:href="#DejaVuSans-34"/>
      <use x="1593.212890625" xlink:href="#DejaVuSans-3a"/>
      <use x="1626.904296875" xlink:href="#DejaVuSans-34"/>
      <use x="1690.52734375" xlink:href="#DejaVuSans-38"/>
      <use x="1754.150390625" xlink:href="#DejaVuSans-3a"/>
      <use x="1787.841796875" xlink:href="#DejaVuSans-34"/>
      <use x="1851.46484375" xlink:href="#DejaVuSans-30"/>
      <use x="1915.087890625" xlink:href="#DejaVuSans-2e"/>
      <use x="1946.875" xlink:href="#DejaVuSans-32"/>
      <use x="2010.498046875" xlink:href="#DejaVuSans-38"/>
      <use x="2074.12109375" xlink:href="#DejaVuSans-36"/>
      <use x="2137.744140625" xlink:href="#DejaVuSans-38"/>
      <use x="2201.3671875" xlink:href="#DejaVuSans-39"/>
      <use x="2264.990234375" xlink:href="#DejaVuSans-38"/>
      <use x="2328.61328125" xlink:href="#DejaVuSans-5a"/>
      <use x="2397.119140625" xlink:href="#DejaVuSans-20"/>
      <use x="2428.90625" xlink:href="#DejaVuSans-55"/>
      <use x="2502.099609375" xlink:href="#DejaVuSans-54"/>
      <use x="2557.30859375" xlink:href="#DejaVuSans-43"/>
     </g>
    </g>
   </g>
   <g id="matplotlib.axis_2">
    <g id="ytick_1">
     <g id="line2d_17">
      <path clip-path="url(#pad36b945f0)" d="
M108 388.8
L777.6 388.8" style="fill:none;stroke:#000000;stroke-dasharray:1.000000,3.000000;stroke-dashoffset:0.0;stroke-width:0.5;"/>
     </g>
     <g id="line2d_18">
      <defs>
       <path d="
M0 0
L4 0" id="md7965d1ba0" style="stroke:#000000;stroke-width:0.5;"/>
      </defs>
      <g>
       <use style="stroke:#000000;stroke-width:0.5;" x="108.0" xlink:href="#md7965d1ba0" y="388.8"/>
      </g>
     </g>
     <g id="line2d_19">
      <defs>
       <path d="
M0 0
L-4 0" id="md9a1c1a7cd" style="stroke:#000000;stroke-width:0.5;"/>
      </defs>
      <g>
       <use style="stroke:#000000;stroke-width:0.5;" x="777.6" xlink:href="#md9a1c1a7cd" y="388.8"/>
      </g>
     </g>
     <g id="text_7">
      <!-- −150 -->
      <defs>
       <path d="
M10.5938 35.5
L73.1875 35.5
L73.1875 27.2031
L10.5938 27.2031
z
" id="DejaVuSans-2212"/>
       <path d="
M10.7969 72.9062
L49.5156 72.9062
L49.5156 64.5938
L19.8281 64.5938
L19.8281 46.7344
Q21.9688 47.4688 24.1094 47.8281
Q26.2656 48.1875 28.4219 48.1875
Q40.625 48.1875 47.75 41.5
Q54.8906 34.8125 54.8906 23.3906
Q54.8906 11.625 47.5625 5.09375
Q40.2344 -1.42188 26.9062 -1.42188
Q22.3125 -1.42188 17.5469 -0.640625
Q12.7969 0.140625 7.71875 1.70312
L7.71875 11.625
Q12.1094 9.23438 16.7969 8.0625
Q21.4844 6.89062 26.7031 6.89062
Q35.1562 6.89062 40.0781 11.3281
Q45.0156 15.7656 45.0156 23.3906
Q45.0156 31 40.0781 35.4375
Q35.1562 39.8906 26.7031 39.8906
Q22.75 39.8906 18.8125 39.0156
Q14.8906 38.1406 10.7969 36.2812
z
" id="DejaVuSans-35"/>
      </defs>
      <g transform="translate(73.1075 392.11125)scale(0.12 -0.12)">
       <use xlink:href="#DejaVuSans-2212"/>
       <use x="83.7890625" xlink:href="#DejaVuSans-31"/>
       <use x="147.412109375" xlink:href="#DejaVuSans-35"/>
       <use x="211.03515625" xlink:href="#DejaVuSans-30"/>
      </g>
     </g>
    </g>
    <g id="ytick_2">
     <g id="line2d_20">
      <path clip-path="url(#pad36b945f0)" d="
M108 302.4
L777.6 302.4" style="fill:none;stroke:#000000;stroke-dasharray:1.000000,3.000000;stroke-dashoffset:0.0;stroke-width:0.5;"/>
     </g>
     <g id="line2d_21">
      <g>
       <use style="stroke:#000000;stroke-width:0.5;" x="108.0" xlink:href="#md7965d1ba0" y="302.4"/>
      </g>
     </g>
     <g id="line2d_22">
      <g>
       <use style="stroke:#000000;stroke-width:0.5;" x="777.6" xlink:href="#md9a1c1a7cd" y="302.4"/>
      </g>
     </g>
     <g id="text_8">
      <!-- −100 -->
      <g transform="translate(73.1075 305.71125)scale(0.12 -0.12)">
       <use xlink:href="#DejaVuSans-2212"/>
       <use x="83.7890625" xlink:href="#DejaVuSans-31"/>
       <use x="147.412109375" xlink:href="#DejaVuSans-30"/>
       <use x="211.03515625" xlink:href="#DejaVuSans-30"/>
      </g>
     </g>
    </g>
    <g id="ytick_3">
     <g id="line2d_23">
      <path clip-path="url(#pad36b945f0)" d="
M108 216
L777.6 216" style="fill:none;stroke:#000000;stroke-dasharray:1.000000,3.000000;stroke-dashoffset:0.0;stroke-width:0.5;"/>
     </g>
     <g id="line2d_24">
      <g>
       <use style="stroke:#000000;stroke-width:0.5;" x="108.0" xlink:href="#md7965d1ba0" y="216.0"/>
      </g>
     </g>
     <g id="line2d_25">
      <g>
       <use style="stroke:#000000;stroke-width:0.5;" x="777.6" xlink:href="#md9a1c1a7cd" y="216.0"/>
      </g>
     </g>
     <g id="text_9">
      <!-- −50 -->
      <g transform="translate(80.7425 219.31125)scale(0.12 -0.12)">
       <use xlink:href="#DejaVuSans-2212"/>
       <use x="83.7890625" xlink:href="#DejaVuSans-35"/>
       <use x="147.412109375" xlink:href="#DejaVuSans-30"/>
      </g>
     </g>
    </g>
    <g id="ytick_4">
     <g id="line2d_26">
      <path clip-path="url(#pad36b945f0)" d="
M108 129.6
L777.6 129.6" style="fill:none;stroke:#000000;stroke-dasharray:1.000000,3.000000;stroke-dashoffset:0.0;stroke-width:0.5;"/>
     </g>
     <g id="line2d_27">
      <g>
       <use style="stroke:#000000;stroke-width:0.5;" x="108.0" xlink:href="#md7965d1ba0" y="129.6"/>
      </g>
     </g>
     <g id="line2d_28">
      <g>
       <use style="stroke:#000000;stroke-width:0.5;" x="777.6" xlink:href="#md9a1c1a7cd" y="129.6"/>
      </g>
     </g>
     <g id="text_10">
      <!-- 0 -->
      <g transform="translate(97.953125 132.91125)scale(0.12 -0.12)">
       <use xlink:href="#DejaVuSans-30"/>
      </g>
     </g>
    </g>
    <g id="ytick_5">
     <g id="line2d_29">
      <path clip-path="url(#pad36b945f0)" d="
M108 43.2
L777.6 43.2" style="fill:none;stroke:#000000;stroke-dasharray:1.000000,3.000000;stroke-dashoffset:0.0;stroke-width:0.5;"/>
     </g>
     <g id="line2d_30">
      <g>
       <use style="stroke:#000000;stroke-width:0.5;" x="108.0" xlink:href="#md7965d1ba0" y="43.2"/>
      </g>
     </g>
     <g id="line2d_31">
      <g>
       <use style="stroke:#000000;stroke-width:0.5;" x="777.6" xlink:href="#md9a1c1a7cd" y="43.2"/>
      </g>
     </g>
     <g id="text_11">
      <!-- 50 -->
      <g transform="translate(90.453125 46.51125)scale(0.12 -0.12)">
       <use xlink:href="#DejaVuSans-35"/>
       <use x="63.623046875" xlink:href="#DejaVuSans-30"/>
      </g>
     </g>
    </g>
    <g id="text_12">
     <!-- $\Delta$Flux Density - nT     0.0=17.802$\mu T$ -->
     <defs>
      <path d="
M44.2812 53.0781
L44.2812 44.5781
Q40.4844 46.5312 36.375 47.5
Q32.2812 48.4844 27.875 48.4844
Q21.1875 48.4844 17.8438 46.4375
Q14.5 44.3906 14.5 40.2812
Q14.5 37.1562 16.8906 35.375
Q19.2812 33.5938 26.5156 31.9844
L29.5938 31.2969
Q39.1562 29.25 43.1875 25.5156
Q47.2188 21.7812 47.2188 15.0938
Q47.2188 7.46875 41.1875 3.01562
Q35.1562 -1.42188 24.6094 -1.42188
Q20.2188 -1.42188 15.4531 -0.5625
Q10.6875 0.296875 5.42188 2
L5.42188 11.2812
Q10.4062 8.6875 15.2344 7.39062
Q20.0625 6.10938 24.8125 6.10938
Q31.1562 6.10938 34.5625 8.28125
Q37.9844 10.4531 37.9844 14.4062
Q37.9844 18.0625 35.5156 20.0156
Q33.0625 21.9688 24.7031 23.7812
L21.5781 24.5156
Q13.2344 26.2656 9.51562 29.9062
Q5.8125 33.5469 5.8125 39.8906
Q5.8125 47.6094 11.2812 51.7969
Q16.75 56 26.8125 56
Q31.7812 56 36.1719 55.2656
Q40.5781 54.5469 44.2812 53.0781" id="DejaVuSans-73"/>
      <path d="
M9.8125 72.9062
L51.7031 72.9062
L51.7031 64.5938
L19.6719 64.5938
L19.6719 43.1094
L48.5781 43.1094
L48.5781 34.8125
L19.6719 34.8125
L19.6719 0
L9.8125 0
z
" id="DejaVuSans-46"/>
      <path d="
M9.42188 75.9844
L18.4062 75.9844
L18.4062 0
L9.42188 0
z
" id="DejaVuSans-6c"/>
      <path d="
M4.59375 1.3125
Q4.64062 1.5625 4.8125 2.1875
Q4.98438 2.82812 5.25 3.17188
Q5.51562 3.51562 6 3.51562
Q14.5938 3.51562 17.3906 4
Q20.0625 4.6875 20.6094 6.89062
L34.2812 61.8125
Q34.7188 63.0312 34.7188 64.0156
Q34.7188 64.7969 31.2031 64.7969
L25.3906 64.7969
Q18.7031 64.7969 15.0625 62.7344
Q11.4219 60.6875 9.71875 57.3125
Q8.01562 53.9531 5.32812 46.2969
Q4.98438 45.4062 4.29688 45.4062
L3.42188 45.4062
Q2.39062 45.4062 2.39062 46.6875
L9.51562 67.3906
Q9.71875 68.3125 10.5 68.3125
L69.5781 68.3125
Q70.6094 68.3125 70.6094 67
L67.2812 46.2969
Q67.2812 46 66.9375 45.7031
Q66.6094 45.4062 66.3125 45.4062
L65.375 45.4062
Q64.4062 45.4062 64.4062 46.6875
Q65.4844 53.7656 65.4844 56.6875
Q65.4844 60.2031 64.0156 62
Q62.5469 63.8125 60.2031 64.2969
Q57.8594 64.7969 54.1094 64.7969
L48.1875 64.7969
Q45.5156 64.7969 44.5781 64.2969
Q43.6562 63.8125 43.0156 61.375
L29.2969 6.5
Q29.25 6.29688 29.2188 6.09375
Q29.2031 5.90625 29.1094 5.60938
Q29.1094 4.34375 30.6094 4
Q33.2031 3.51562 41.7031 3.51562
Q42.6719 3.51562 42.6719 2.20312
Q42.3281 0.78125 42.125 0.390625
Q41.9375 0 41.0156 0
L5.60938 0
Q4.59375 0 4.59375 1.3125" id="Cmmi10-54"/>
      <path d="
M19.6719 64.7969
L19.6719 8.10938
L31.5938 8.10938
Q46.6875 8.10938 53.6875 14.9375
Q60.6875 21.7812 60.6875 36.5312
Q60.6875 51.1719 53.6875 57.9844
Q46.6875 64.7969 31.5938 64.7969
z

M9.8125 72.9062
L30.0781 72.9062
Q51.2656 72.9062 61.1719 64.0938
Q71.0938 55.2812 71.0938 36.5312
Q71.0938 17.6719 61.125 8.82812
Q51.1719 0 30.0781 0
L9.8125 0
z
" id="DejaVuSans-44"/>
      <path d="
M5.42188 0
Q4.59375 0 4.59375 0.78125
Q4.64062 0.875 4.65625 0.921875
Q4.6875 0.984375 4.6875 1.125
L39.1094 70.5156
Q39.5469 71.5781 40.9219 71.5781
L42.2812 71.5781
Q43.6562 71.5781 44.0938 70.5156
L78.5156 1.125
Q78.5625 1.03125 78.5781 0.953125
Q78.6094 0.875 78.6094 0.78125
Q78.6094 0 77.7812 0
z

M12.0156 8.01562
L64.7031 8.01562
L38.375 61.0781
z
" id="Cmr10-a2"/>
      <path d="
M10.5938 45.4062
L73.1875 45.4062
L73.1875 37.2031
L10.5938 37.2031
z

M10.5938 25.4844
L73.1875 25.4844
L73.1875 17.1875
L10.5938 17.1875
z
" id="DejaVuSans-3d"/>
      <path d="
M54.8906 54.6875
L35.1094 28.0781
L55.9062 0
L45.3125 0
L29.3906 21.4844
L13.4844 0
L2.875 0
L24.125 28.6094
L4.6875 54.6875
L15.2812 54.6875
L29.7812 35.2031
L44.2812 54.6875
z
" id="DejaVuSans-78"/>
      <path d="
M32.1719 -5.07812
Q28.375 -14.8438 24.75 -17.8125
Q21.1406 -20.7969 15.0938 -20.7969
L7.90625 -20.7969
L7.90625 -13.2812
L13.1875 -13.2812
Q16.8906 -13.2812 18.9375 -11.5156
Q21 -9.76562 23.4844 -3.21875
L25.0938 0.875
L2.98438 54.6875
L12.5 54.6875
L29.5938 11.9219
L46.6875 54.6875
L56.2031 54.6875
z
" id="DejaVuSans-79"/>
      <path d="
M54.8906 33.0156
L54.8906 0
L45.9062 0
L45.9062 32.7188
Q45.9062 40.4844 42.875 44.3281
Q39.8438 48.1875 33.7969 48.1875
Q26.5156 48.1875 22.3125 43.5469
Q18.1094 38.9219 18.1094 30.9062
L18.1094 0
L9.07812 0
L9.07812 54.6875
L18.1094 54.6875
L18.1094 46.1875
Q21.3438 51.125 25.7031 53.5625
Q30.0781 56 35.7969 56
Q45.2188 56 50.0469 50.1719
Q54.8906 44.3438 54.8906 33.0156" id="DejaVuSans-6e"/>
      <path d="
M2.78125 -18.7969
Q2.78125 -18.2188 2.875 -18.0156
L17.5781 41.0156
Q18.0156 42.4375 19.1562 43.3125
Q20.3125 44.1875 21.7812 44.1875
Q23.0469 44.1875 23.9219 43.4219
Q24.8125 42.6719 24.8125 41.4062
Q24.8125 41.1094 24.7812 40.9375
Q24.75 40.7656 24.7031 40.5781
L18.7969 17.1875
Q17.8281 13.0312 17.8281 10.0156
Q17.8281 6.29688 19.5781 3.90625
Q21.3438 1.51562 24.9062 1.51562
Q32.1719 1.51562 37.7031 10.5938
Q37.75 10.6875 37.7656 10.7344
Q37.7969 10.7969 37.7969 10.8906
L45.0156 39.8906
Q45.3594 41.2188 46.5781 42.1562
Q47.7969 43.1094 49.2188 43.1094
Q50.3906 43.1094 51.2969 42.3281
Q52.2031 41.5469 52.2031 40.2812
Q52.2031 39.7031 52.0938 39.5
L44.9219 10.6875
Q44.1875 7.85938 44.1875 5.8125
Q44.1875 1.51562 47.125 1.51562
Q50.25 1.51562 51.8281 5.375
Q53.4219 9.23438 54.5938 14.7031
Q54.7812 15.2812 55.4219 15.2812
L56.5938 15.2812
Q56.9844 15.2812 57.25 14.9688
Q57.5156 14.6562 57.5156 14.3125
Q55.7656 7.32812 53.6875 3.09375
Q51.6094 -1.125 46.9219 -1.125
Q43.6094 -1.125 41.0469 0.78125
Q38.4844 2.6875 37.7031 5.90625
Q35.2031 2.78125 31.8594 0.828125
Q28.5156 -1.125 24.8125 -1.125
Q18.5625 -1.125 14.9844 1.8125
L9.90625 -18.4062
Q9.625 -19.8281 8.45312 -20.7031
Q7.28125 -21.5781 5.8125 -21.5781
Q4.59375 -21.5781 3.6875 -20.8125
Q2.78125 -20.0625 2.78125 -18.7969" id="Cmmi10-b9"/>
     </defs>
     <g transform="translate(65.4675 323.7)rotate(-90.0)scale(0.12 -0.12)">
      <use transform="translate(0.0 0.015625)" xlink:href="#Cmr10-a2"/>
      <use transform="translate(83.30078125 0.015625)" xlink:href="#DejaVuSans-46"/>
      <use transform="translate(140.8203125 0.015625)" xlink:href="#DejaVuSans-6c"/>
      <use transform="translate(168.603515625 0.015625)" xlink:href="#DejaVuSans-75"/>
      <use transform="translate(231.982421875 0.015625)" xlink:href="#DejaVuSans-78"/>
      <use transform="translate(291.162109375 0.015625)" xlink:href="#DejaVuSans-20"/>
      <use transform="translate(322.94921875 0.015625)" xlink:href="#DejaVuSans-44"/>
      <use transform="translate(399.951171875 0.015625)" xlink:href="#DejaVuSans-65"/>
      <use transform="translate(461.474609375 0.015625)" xlink:href="#DejaVuSans-6e"/>
      <use transform="translate(524.853515625 0.015625)" xlink:href="#DejaVuSans-73"/>
      <use transform="translate(576.953125 0.015625)" xlink:href="#DejaVuSans-69"/>
      <use transform="translate(604.736328125 0.015625)" xlink:href="#DejaVuSans-74"/>
      <use transform="translate(643.9453125 0.015625)" xlink:href="#DejaVuSans-79"/>
      <use transform="translate(703.125 0.015625)" xlink:href="#DejaVuSans-20"/>
      <use transform="translate(734.912109375 0.015625)" xlink:href="#DejaVuSans-2d"/>
      <use transform="translate(770.99609375 0.015625)" xlink:href="#DejaVuSans-20"/>
      <use transform="translate(802.783203125 0.015625)" xlink:href="#DejaVuSans-6e"/>
      <use transform="translate(866.162109375 0.015625)" xlink:href="#DejaVuSans-54"/>
      <use transform="translate(927.24609375 0.015625)" xlink:href="#DejaVuSans-20"/>
      <use transform="translate(959.033203125 0.015625)" xlink:href="#DejaVuSans-20"/>
      <use transform="translate(990.8203125 0.015625)" xlink:href="#DejaVuSans-20"/>
      <use transform="translate(1022.607421875 0.015625)" xlink:href="#DejaVuSans-20"/>
      <use transform="translate(1054.39453125 0.015625)" xlink:href="#DejaVuSans-20"/>
      <use transform="translate(1086.181640625 0.015625)" xlink:href="#DejaVuSans-30"/>
      <use transform="translate(1149.8046875 0.015625)" xlink:href="#DejaVuSans-2e"/>
      <use transform="translate(1181.591796875 0.015625)" xlink:href="#DejaVuSans-30"/>
      <use transform="translate(1245.21484375 0.015625)" xlink:href="#DejaVuSans-3d"/>
      <use transform="translate(1329.00390625 0.015625)" xlink:href="#DejaVuSans-31"/>
      <use transform="translate(1392.626953125 0.015625)" xlink:href="#DejaVuSans-37"/>
      <use transform="translate(1456.25 0.015625)" xlink:href="#DejaVuSans-2e"/>
      <use transform="translate(1485.412109375 0.015625)" xlink:href="#DejaVuSans-38"/>
      <use transform="translate(1549.03515625 0.015625)" xlink:href="#DejaVuSans-30"/>
      <use transform="translate(1612.658203125 0.015625)" xlink:href="#DejaVuSans-32"/>
      <use transform="translate(1676.28125 0.015625)" xlink:href="#Cmmi10-b9"/>
      <use transform="translate(1736.486328125 0.015625)" xlink:href="#Cmmi10-54"/>
     </g>
    </g>
   </g>
   <g id="text_13">
    <!-- 2017-8-28 -->
    <g transform="translate(406.558125 38.2)scale(0.144 -0.144)">
     <use xlink:href="#DejaVuSans-32"/>
     <use x="63.623046875" xlink:href="#DejaVuSans-30"/>
     <use x="127.24609375" xlink:href="#DejaVuSans-31"/>
     <use x="190.869140625" xlink:href="#DejaVuSans-37"/>
     <use x="254.4921875" xlink:href="#DejaVuSans-2d"/>
     <use x="290.576171875" xlink:href="#DejaVuSans-38"/>
     <use x="354.19921875" xlink:href="#DejaVuSans-2d"/>
     <use x="390.283203125" xlink:href="#DejaVuSans-32"/>
     <use x="453.90625" xlink:href="#DejaVuSans-38"/>
    </g>
   </g>
  </g>
 </g>
 <defs>
  <clipPath id="pad36b945f0">
   <rect height="345.6" width="669.6" x="108.0" y="43.2"/>
  </clipPath>
 </defs>
</svg>
